<svg width="32" height="32" viewBox="0 0 32 32" fill="none" xmlns="http://www.w3.org/2000/svg">
<path d="M15.5639 7.69294C15.5767 7.66732 15.5959 7.64169 15.6151 7.62253C16.5815 6.36815 17.9639 5.6193 19.4167 5.42095C22.5847 4.98575 25.5031 7.21293 25.9383 10.381C26.3735 13.549 24.1464 16.4738 20.9783 16.9026C17.8103 17.3378 14.8855 15.1169 14.4567 11.9426C14.2648 10.4898 14.6167 8.96015 15.5639 7.69295L15.5639 7.69294ZM16.2743 8.17929C15.4487 9.26086 15.148 10.5793 15.3143 11.8273C15.6856 14.5281 18.1687 16.4161 20.8695 16.0449C23.5703 15.6736 25.4583 13.1905 25.0871 10.4897C24.7223 7.78889 22.2327 5.90089 19.5383 6.27209C18.2838 6.45136 17.0934 7.09772 16.2743 8.17929ZM25.5479 16.8961L25.9383 16.5121L25.3944 15.9682C25.228 15.8018 25.228 15.533 25.388 15.3666L25.5224 15.2003C26.6361 13.7346 27.052 11.9491 26.8216 10.2595C26.3224 6.60507 22.956 4.05147 19.3016 4.55067C17.6055 4.78108 15.9992 5.65787 14.8856 7.12347C14.3928 7.77627 14.0343 8.4867 13.8104 9.2291C13.804 9.25472 13.7976 9.28035 13.7848 9.30587C13.6824 9.60024 13.5352 10.4387 13.5352 10.7395C13.5352 10.7587 13.5352 10.778 13.5288 10.7971C13.4969 11.1043 13.5352 11.8467 13.5928 12.1604C13.5991 12.1795 13.5991 12.2051 13.6056 12.2243C13.7656 13.2227 14.156 14.1891 14.7512 15.0339C14.7704 15.0531 14.7832 15.0723 14.796 15.0979C15.1736 15.6098 15.6216 16.077 16.1592 16.4866C17.356 17.3954 18.8153 17.8754 20.3128 17.8434C20.7609 17.837 21.2024 17.7794 21.6441 17.6834C21.6697 17.677 21.6889 17.6706 21.7145 17.6706C22.4377 17.4978 23.1353 17.2097 23.7753 16.8066C23.7945 16.7938 23.8201 16.7746 23.8458 16.7618C24.0442 16.6338 24.2425 16.4866 24.4282 16.3394C24.601 16.1986 24.8506 16.2114 25.0042 16.3651L25.5479 16.8961ZM26.5911 15.9424C26.9879 15.7505 27.4744 15.8272 27.7944 16.1472L31.1288 19.4816C31.5384 19.8977 31.5384 20.5697 31.1288 20.9792L30.0152 22.0929C29.5992 22.5089 28.9337 22.5089 28.5176 22.0929L26.092 19.6673V24.3009C26.092 24.3713 26.0856 24.4417 26.0856 24.5121H26.988C27.2248 24.5121 27.4232 24.7041 27.4232 24.9473V25.8625C27.4232 27.2001 26.4184 28.3841 25.0937 28.3841L2.89207 28.384C1.56727 28.384 0.5625 27.1935 0.5625 25.8624V24.9472C0.5625 24.7104 0.754479 24.512 0.9977 24.512H1.9001C1.89375 24.4416 1.89375 24.3712 1.89375 24.3008L1.89364 11.2C1.89364 9.9263 2.77042 8.71038 4.0249 8.71038H13.0681C14.0025 5.98398 16.3897 4.07038 19.1801 3.69278C23.3017 3.12955 27.1033 6.016 27.6665 10.144C27.9225 12.0192 27.4745 13.9904 26.2713 15.6288L26.5911 15.9424ZM25.2279 18.7968C24.9975 18.5664 24.8759 18.3232 24.8759 18.0096C24.8759 17.856 24.9079 17.696 24.9783 17.5553L24.6647 17.2416C24.6007 17.2864 24.5431 17.3312 24.4791 17.376V23.232C24.4791 23.4688 24.2871 23.6672 24.0439 23.6672H3.93533C3.69856 23.6672 3.50013 23.4752 3.50013 23.232V10.7392C3.50013 10.5024 3.69211 10.304 3.93533 10.304H12.7097C12.7354 10.0608 12.7801 9.81764 12.8313 9.57441H4.02489C3.26324 9.57441 2.75124 10.4064 2.75124 11.2V24.2944C2.75124 24.3712 2.75124 24.4416 2.75759 24.5057H8.364C8.50483 24.5057 8.6392 24.5761 8.72242 24.6977L9.37522 25.6896H18.6104L19.3592 24.6977C19.4359 24.5825 19.5704 24.5057 19.7176 24.5057H25.2152C25.2215 24.4417 25.2215 24.3713 25.2215 24.2944V18.7968L25.2279 18.7968ZM26.9111 16.7616L25.7975 17.8753C25.7207 17.9457 25.7207 18.0737 25.7975 18.1505L29.1319 21.4849C29.2087 21.5553 29.3303 21.5553 29.4071 21.4849L30.5207 20.3712C30.5912 20.2945 30.5912 20.1728 30.5207 20.096L27.1863 16.7616C27.1096 16.6849 26.9816 16.6849 26.9111 16.7616ZM23.6151 17.8816C23.1671 18.1121 22.6936 18.2912 22.2136 18.4256V20.256C22.2136 20.9024 21.6888 21.4273 21.0488 21.4273H18.1432C17.4968 21.4273 16.9719 20.9025 16.9719 20.256V17.9712C16.1975 17.6 15.4807 17.0944 14.8663 16.4864V20.2624C14.8663 21.0176 14.2455 21.6385 13.4902 21.6385H6.42464C5.66944 21.6385 5.04859 21.0176 5.04859 20.2624V13.2032C5.04859 12.448 5.66941 11.8272 6.42464 11.8272H12.6902C12.6711 11.6096 12.6583 11.392 12.6583 11.1744H4.36386V22.7968H23.6151L23.6151 17.8816ZM21.3495 18.6113C20.1783 18.7905 18.9687 18.6945 17.8359 18.3233V20.2625C17.8359 20.4288 17.9768 20.5697 18.1431 20.5697H21.0487C21.2151 20.5697 21.3559 20.4288 21.3559 20.2625V18.6113H21.3495ZM13.9959 15.4497C13.4135 14.6113 13.0167 13.6705 12.8183 12.6913H6.42472C6.14315 12.6913 5.91275 12.9217 5.91275 13.2033V20.2625C5.91275 20.5441 6.14316 20.7745 6.42472 20.7745H13.4839C13.7591 20.7745 13.9959 20.544 13.9959 20.2625L13.9959 15.4497ZM7.19912 19.3537C6.96235 19.3537 6.76392 19.1617 6.76392 18.9185C6.76392 18.6817 6.9559 18.4833 7.19912 18.4833H12.7223C12.9591 18.4833 13.1511 18.6753 13.1511 18.9185C13.1511 19.1553 12.9591 19.3537 12.7223 19.3537H7.19912ZM7.19912 17.6705C6.96235 17.6705 6.76392 17.4785 6.76392 17.2353C6.76392 16.9985 6.9559 16.8001 7.19912 16.8001H12.7223C12.9591 16.8001 13.1511 16.9921 13.1511 17.2353C13.1511 17.4721 12.9591 17.6705 12.7223 17.6705H7.19912ZM7.19912 15.9873C6.96235 15.9873 6.76392 15.7953 6.76392 15.5521C6.76392 15.3153 6.9559 15.1169 7.19912 15.1169H12.7223C12.9591 15.1169 13.1511 15.3088 13.1511 15.5521C13.1511 15.7888 12.9591 15.9873 12.7223 15.9873H7.19912ZM7.19912 14.1953C6.96235 14.1953 6.76392 14.0033 6.76392 13.7601C6.76392 13.5233 6.9559 13.3249 7.19912 13.3249H9.40069C9.63747 13.3249 9.83589 13.5169 9.83589 13.7601C9.83589 13.9969 9.64392 14.1953 9.40069 14.1953H7.19912ZM26.5527 25.8497V25.3697H19.9415L19.1735 26.3809C19.0903 26.4962 18.9559 26.5538 18.8279 26.5538H9.15107C8.98471 26.5538 8.84387 26.4642 8.76712 26.3233L8.13992 25.3697H1.42632V25.8497C1.42632 26.7136 2.04069 27.5073 2.89195 27.5073H25.0935C25.9383 27.5137 26.5528 26.7201 26.5528 25.8497L26.5527 25.8497Z" fill="#016FB9"/>
</svg>
