<svg width="96" height="96" viewBox="0 0 96 96" fill="none" xmlns="http://www.w3.org/2000/svg">
<g clip-path="url(#clip0_176_2544)">
<path d="M73.2009 22.8399C71.6409 21.2799 69.1209 21.2799 67.5609 22.8399L48.0009 42.3599L28.4409 22.7999C26.8809 21.2399 24.3609 21.2399 22.8009 22.7999C21.2409 24.3599 21.2409 26.8799 22.8009 28.4399L42.3609 47.9999L22.8009 67.5599C21.2409 69.1199 21.2409 71.6399 22.8009 73.1999C24.3609 74.7599 26.8809 74.7599 28.4409 73.1999L48.0009 53.6399L67.5609 73.1999C69.1209 74.7599 71.6409 74.7599 73.2009 73.1999C74.7609 71.6399 74.7609 69.1199 73.2009 67.5599L53.6409 47.9999L73.2009 28.4399C74.7209 26.9199 74.7209 24.3599 73.2009 22.8399Z" fill="black"/>
</g>
<defs>
<clipPath id="clip0_176_2544">
<rect width="96" height="96" fill="white"/>
</clipPath>
</defs>
</svg>
