<svg width="1600" height="1600" viewBox="0 0 1600 1600" fill="none" xmlns="http://www.w3.org/2000/svg">
<rect x="5" y="5" width="1590" height="1590" rx="795" fill="#ECEBF3"/>
<path d="M1055.24 854.414L1182.21 674.666C1186.83 668.121 1187.43 659.54 1183.74 652.427C1180.05 645.313 1172.71 640.842 1164.69 640.842H1008.51V592.899C1117.4 578.808 1210.69 553.67 1274.24 520.037C1281.17 516.373 1285.55 509.223 1285.66 501.384C1285.77 493.551 1281.6 486.273 1274.78 482.412L1188.29 433.421C1162.8 418.979 1133.85 411.35 1104.57 411.35H1031.16L1000.16 200.125C995.37 167.459 966.859 142.822 933.837 142.822H887.562C864.26 142.822 842.285 155.209 830.213 175.152L820.647 190.961C816.309 198.13 808.398 202.596 800.008 202.596C791.613 202.596 783.701 198.135 779.359 190.957L769.798 175.147C757.725 155.209 735.75 142.822 712.449 142.822H666.175C633.152 142.822 604.642 167.459 599.852 200.126L568.849 411.351H495.44C466.154 411.351 437.202 418.984 411.713 433.422L325.229 482.412C318.407 486.272 314.237 493.55 314.351 501.385C314.465 509.219 318.84 516.369 325.767 520.037C389.314 553.665 482.614 578.803 591.499 592.899V640.842L435.305 640.847C427.289 640.847 419.943 645.317 416.256 652.431C412.569 659.55 413.162 668.131 417.783 674.67L544.751 854.419C421.294 871.868 326.024 978.225 326.024 1106.43V1443.55C326.024 1455.4 335.627 1465 347.476 1465H1252.52C1264.37 1465 1273.97 1455.4 1273.97 1443.55L1273.97 1106.43C1273.97 978.225 1178.7 871.872 1055.25 854.419L1055.24 854.414ZM1123.27 683.742L1004.5 851.894H920.742V683.742H1123.27ZM700.708 640.84H634.39V597.793C687.067 603.029 742.749 605.782 799.998 605.782C857.248 605.782 912.928 603.029 965.607 597.793V640.84H899.289C887.44 640.84 877.837 650.443 877.837 662.292V683.803C826.071 669.748 773.922 669.748 722.157 683.803V662.292C722.157 650.443 712.555 640.84 700.706 640.84H700.708ZM642.279 206.35C644.006 194.593 654.269 185.724 666.159 185.724H712.434C720.819 185.724 728.741 190.185 733.083 197.359L742.635 213.154C754.694 233.106 776.678 245.498 799.993 245.498C823.308 245.498 845.292 233.102 857.342 213.159L866.903 197.363C871.246 190.186 879.167 185.724 887.552 185.724H933.826C945.716 185.724 955.984 194.592 957.707 206.351L974.255 319.089H625.736L642.279 206.35ZM382.789 499.114L432.851 470.753C451.905 459.957 473.547 454.251 495.432 454.251H1104.57C1126.46 454.251 1148.09 459.956 1167.15 470.753L1217.21 499.114C1118.38 538.876 963.85 562.884 800.003 562.884C636.168 562.879 481.631 538.871 382.791 499.114H382.789ZM476.724 683.75H679.258V851.902H595.508L476.724 683.75ZM778.553 1422.1H503.231V1187.38C503.231 1175.53 493.629 1165.93 481.779 1165.93C469.93 1165.93 460.328 1175.53 460.328 1187.38V1422.1H368.936V1106.43C368.936 989.744 463.869 894.812 580.558 894.812H688.064L778.562 1059.23L778.553 1422.1ZM737.022 894.812H862.975L799.994 1009.24L737.022 894.812ZM1231.07 1422.1H1139.68V1187.38C1139.68 1175.53 1130.08 1165.93 1118.23 1165.93C1106.38 1165.93 1096.77 1175.53 1096.77 1187.38V1422.1H821.453V1059.23L911.947 894.812H1019.45C1136.14 894.812 1231.07 989.745 1231.07 1106.43L1231.07 1422.1Z" fill="#016FB9"/>
<path d="M973.111 1098.46H894.192C882.343 1098.46 872.74 1108.06 872.74 1119.91C872.74 1131.76 882.342 1141.36 894.192 1141.36H973.111C984.96 1141.36 994.562 1131.76 994.562 1119.91C994.562 1108.06 984.96 1098.46 973.111 1098.46Z" fill="#016FB9"/>
<path d="M1050.76 1098.46H1035.48C1023.63 1098.46 1014.03 1108.06 1014.03 1119.91C1014.03 1131.76 1023.63 1141.36 1035.48 1141.36H1050.76C1062.61 1141.36 1072.22 1131.76 1072.22 1119.91C1072.22 1108.06 1062.61 1098.46 1050.76 1098.46Z" fill="#016FB9"/>
<path d="M1404.92 935.136V860.055C1404.92 848.206 1395.31 838.603 1383.47 838.603L1191.46 838.599C1179.61 838.599 1170 848.201 1170 860.05C1170 871.899 1179.61 881.502 1191.46 881.502H1362.01V935.096C1329.56 944.407 1305.75 974.348 1305.75 1009.75C1305.75 1052.57 1340.58 1087.4 1383.4 1087.4C1426.22 1087.4 1461.06 1052.57 1461.06 1009.75C1461.06 974.393 1437.3 944.488 1404.91 935.137L1404.92 935.136Z" fill="#016FB9"/>
<path d="M1191.49 383.815H1383.5C1395.35 383.815 1404.95 374.213 1404.95 362.364L1404.94 287.278C1437.33 277.926 1461.09 248.017 1461.09 212.662C1461.09 169.841 1426.25 135.006 1383.43 135.006C1340.61 135.006 1305.78 169.841 1305.78 212.662C1305.78 248.068 1329.59 278.004 1362.04 287.314V340.909L1191.48 340.913C1179.63 340.913 1170.03 350.515 1170.03 362.365C1170.03 374.214 1179.63 383.816 1191.48 383.816L1191.49 383.815Z" fill="#016FB9"/>
<path d="M1383.45 533.557C1348.07 533.557 1318.14 557.341 1308.81 589.762H1224.66C1212.82 589.762 1203.21 599.364 1203.21 611.214C1203.21 623.063 1212.82 632.665 1224.66 632.665H1308.81C1318.14 665.081 1348.07 688.866 1383.45 688.866C1426.27 688.866 1461.11 654.035 1461.11 611.214C1461.11 568.393 1426.27 533.558 1383.45 533.558V533.557Z" fill="#016FB9"/>
<path d="M237.959 935.101V881.506H408.514C420.362 881.506 429.965 871.904 429.965 860.055C429.965 848.205 420.363 838.603 408.514 838.603L216.504 838.599C204.655 838.599 195.052 848.201 195.052 860.05V935.131C162.663 944.483 138.911 974.392 138.911 1009.75C138.911 1052.57 173.747 1087.4 216.567 1087.4C259.387 1087.4 294.219 1052.57 294.219 1009.75C294.219 974.351 270.407 944.41 237.959 935.101Z" fill="#016FB9"/>
<path d="M195.052 287.274V362.354C195.052 374.203 204.655 383.806 216.504 383.806H408.514C420.362 383.806 429.965 374.204 429.965 362.354C429.965 350.505 420.363 340.903 408.514 340.903L237.959 340.908V287.313C270.406 278.003 294.219 248.061 294.219 212.661C294.219 169.84 259.388 135.005 216.567 135.005C173.747 135.005 138.911 169.84 138.911 212.661C138.911 248.016 162.668 277.925 195.052 287.272V287.274Z" fill="#016FB9"/>
<path d="M216.567 688.864C251.949 688.864 281.873 665.083 291.202 632.663H375.352C387.201 632.663 396.804 623.061 396.804 611.212C396.804 599.362 387.202 589.76 375.352 589.76H291.202C281.873 557.34 251.946 533.555 216.567 533.555C173.747 533.555 138.911 568.395 138.911 611.21C138.911 654.03 173.747 688.864 216.567 688.864Z" fill="#016FB9"/>
<rect x="5" y="5" width="1590" height="1590" rx="795" stroke="#016FB9" stroke-width="10"/>
</svg>
