<svg width="32" height="32" viewBox="0 0 32 32" fill="none" xmlns="http://www.w3.org/2000/svg">
<path fill-rule="evenodd" clip-rule="evenodd" d="M28.306 31.9625H27.0687V27.5009H30.5181V29.7505C30.5181 30.969 29.5245 31.9626 28.306 31.9626L28.306 31.9625ZM26.1877 31.9625H21.0511V27.5009H26.1877V31.9625ZM20.1701 31.9625H15.0525V27.5009H20.1703V31.9625H20.1701ZM14.1712 31.9625H9.03462V27.5009H14.1712V31.9625ZM8.15355 31.9625H3.67302C2.45448 31.9625 1.46094 30.969 1.46094 29.7504V27.5008H8.15347L8.15355 31.9625ZM1.46128 26.6198V22.9454H5.54795V26.6198H1.46128ZM1.46128 22.0646V18.3902H8.15382V22.0646H1.46128ZM1.46128 17.5281V16.4033C1.46128 15.166 2.45483 14.1725 3.67336 14.1725H5.54795V17.5282L1.46128 17.5281ZM6.42902 14.1724H11.528V17.5281H6.42902V14.1724ZM12.409 14.1724H17.5266V17.5281H12.4088V14.1724H12.409ZM18.389 14.1724H23.5066V17.5281H18.3887V14.1724H18.389ZM24.369 14.1724H28.3058C29.5243 14.1724 30.5179 15.1659 30.5179 16.4032V17.528H24.3691L24.369 14.1724ZM30.5178 18.3902V22.0646H27.0685V18.3902H30.5178ZM30.5178 22.9454V26.6198H24.369V22.9454H30.5178ZM20.601 26.6198H23.4879L23.5067 22.9454H18.3891V26.6198H20.6012H20.601ZM17.5266 22.9454H12.409V26.6198H17.5269V22.9454H17.5266ZM11.5277 22.9454H6.42875V26.6198H11.5277V22.9454ZM26.1874 18.3902H21.0509V22.0646H26.1874V18.3902ZM20.1698 18.3902H15.0333V22.0646H20.1698V18.3902ZM14.1709 18.3902H9.03435V22.0646H14.1709V18.3902Z" fill="#016FB9"/>
<path fill-rule="evenodd" clip-rule="evenodd" d="M18.6894 13.3098C18.6519 12.8599 18.4831 12.41 18.2207 11.9413C16.9834 9.84177 16.7023 9.03575 16.7023 8.17335C16.0274 8.51073 15.4462 9.54177 15.0339 11.1165C14.9776 11.304 14.8089 11.4352 14.6215 11.4352C14.0966 11.4352 13.9091 11.0228 13.8154 10.704C13.1593 11.2289 12.9531 12.2225 12.9719 13.0099V13.3098H9.6724C9.14749 12.8036 8.67885 12.1662 8.37885 11.3977C7.74147 9.78551 7.9852 7.94836 9.07251 5.94249C9.20376 5.71749 9.29751 5.53009 9.39115 5.36135C9.72853 4.70521 9.85979 4.44281 10.2159 4.44281C10.3847 4.44281 10.6096 4.51781 10.7409 4.85521C10.7971 4.96771 10.8346 5.11771 10.8909 5.32385C10.9471 5.4926 11.0034 5.69876 11.0971 5.94249C11.3409 6.65489 11.6595 7.12353 11.9781 7.21729C11.9969 7.23604 12.0156 7.23604 12.0344 7.23604C12.0156 7.14229 11.9781 7.04854 11.9594 6.99229C11.9031 6.87979 11.8656 6.76729 11.8469 6.67365C11.472 5.23021 11.9219 3.52432 13.1217 1.96832C13.8716 0.99352 15.015 0 15.8774 0C16.2148 0 16.4211 0.15 16.5336 0.281147C16.7211 0.506147 16.7961 0.843547 16.7211 1.25595C16.4773 2.99939 17.396 4.63035 17.9583 5.43648L18.0708 5.58648L18.1833 5.75523C18.2771 5.60523 18.3896 5.43659 18.577 5.2491C19.1206 4.63046 19.7018 4.21806 20.3392 3.99304C20.7328 3.86179 21.0328 3.80554 21.2577 3.80554C21.5015 3.80554 21.7076 3.88054 21.8389 4.03054C22.0639 4.27429 22.0264 4.61169 21.9889 4.89284C21.9701 5.02409 21.9514 5.13659 21.9514 5.24897C21.9514 6.84241 22.72 7.91094 23.1886 8.3983C23.2824 8.49205 23.3574 8.5483 23.4136 8.60455C23.6574 8.82955 23.6948 8.94194 23.8073 9.37319C24.2572 11.1729 23.7135 12.4476 22.9638 13.31L18.6894 13.3098Z" fill="#016FB9"/>
</svg>
