<svg width="1600" height="1600" viewBox="0 0 1600 1600" fill="none" xmlns="http://www.w3.org/2000/svg">
<rect x="5" y="5" width="1590" height="1590" rx="795" fill="#0C120C"/>
<path fill-rule="evenodd" clip-rule="evenodd" d="M1132.05 1404.92V1371.25H467.967V1404.99V1404.99C468.892 1411.73 473.085 1417.59 479.169 1420.64C489.865 1427.02 502.151 1430.24 514.601 1429.93H1085.37C1097.82 1430.24 1110.11 1427.02 1120.8 1420.64C1126.89 1417.59 1131.07 1411.73 1132 1404.99L1132.05 1404.92ZM497.518 1340.94H1104.23L1103.52 955.446C1103.5 948.629 1100.78 942.094 1095.96 937.272C1091.14 932.45 1084.6 929.734 1077.79 929.716H522.266C515.448 929.743 508.918 932.46 504.096 937.281C499.279 942.103 496.559 948.629 496.531 955.446L497.566 1341.01L497.518 1340.94ZM437.722 1373.85C419.816 1371.54 402.316 1369.11 385.487 1366.51C363.284 1363.11 342.311 1359.43 323.143 1355.31L323.147 1355.31C298.365 1350.16 273.91 1343.56 249.912 1335.53C231.123 1329.42 212.939 1321.58 195.607 1312.09C186.734 1308.36 179.693 1301.27 176.006 1292.38C172.684 1273.54 173.445 1254.21 178.23 1235.68C186.556 1190.67 197.666 1146.22 211.507 1102.59C224.317 1060.69 239.848 1019.67 258.004 979.795C275.8 941.55 297.284 905.133 322.148 871.058C342.35 843.519 364.58 817.533 388.666 793.315C407.442 774.33 424.761 758.734 441.293 745.03C453.895 734.585 465.935 725.261 477.779 716.401C486.825 728.61 495.501 740.495 504.083 752.212C538.705 799.589 571.509 844.488 619.711 899.329H522.267C507.419 899.352 493.191 905.262 482.696 915.758C472.201 926.253 466.29 940.481 466.267 955.329L466.618 1086.24H466.613C460.425 1080.9 453.703 1076.21 446.553 1072.24C431.345 1064.16 414.474 1059.73 397.261 1059.26C393.2 1058.93 389.181 1060.25 386.109 1062.93C383.042 1065.61 381.187 1069.41 380.964 1073.48C380.741 1077.55 382.167 1081.53 384.929 1084.52C387.686 1087.52 391.537 1089.28 395.606 1089.39C408.339 1089.65 420.845 1092.83 432.146 1098.7C445.358 1106.68 457.079 1116.89 466.795 1128.88L466.923 1175.09C462.557 1172.37 457.977 1169.81 453.315 1167.46V1167.45C440.053 1160.54 425.93 1155.42 411.315 1152.25C400.19 1150.33 388.897 1149.56 377.618 1149.94C365.887 1150.19 355.556 1151.1 345.22 1152.03C341.136 1152.26 337.322 1154.13 334.647 1157.22C331.967 1160.31 330.655 1164.35 331.005 1168.42C331.361 1172.5 333.348 1176.26 336.515 1178.84C339.683 1181.42 343.761 1182.61 347.826 1182.14C358.495 1181.2 369.164 1180.26 378.205 1180.05C387.47 1179.72 396.745 1180.34 405.882 1181.9C412.686 1183.31 419.335 1185.35 425.747 1188.02C424.835 1188.27 423.942 1188.54 423.045 1188.82C404.447 1194.57 387.935 1205.63 375.53 1220.64C370.312 1227.13 371.342 1236.62 377.831 1241.85C384.325 1247.06 393.818 1246.03 399.036 1239.54C407.668 1229.18 419.135 1221.57 432.036 1217.65C443.365 1214.17 455.342 1213.37 467.036 1215.29L467.373 1340.94H465.076C459.133 1340.92 453.309 1342.59 448.274 1345.74C441.848 1349.58 437.869 1356.47 437.76 1363.95V1373.74L437.722 1373.85ZM976.885 511.788C950.439 503.019 923.442 496.006 896.075 490.788C864.398 484.786 832.232 481.741 799.994 481.687C766.84 481.655 733.745 484.467 701.069 490.086C674.664 494.634 648.61 501.037 623.103 509.249V593.249C623.103 654.736 648.095 680.877 683.765 718.188C692.866 727.708 702.596 737.885 712.239 748.789H712.243C736.566 771.886 768.475 785.325 801.995 786.592C833.923 786.077 864.307 772.778 886.346 749.673C896.764 737.76 906.48 727.537 915.577 717.95C951.038 680.64 976.882 653.437 976.882 593.256L976.885 511.788ZM849.614 899.448C860.255 885.967 873.973 869.867 889.29 851.846C941.329 790.819 1012.28 707.646 1038.32 636.55C1055.12 590.476 1051.79 549.401 1007.13 524.313V593.319C1007.13 665.461 977.731 696.387 937.44 738.802C928.217 748.518 918.386 758.863 908.575 770.12L907.805 770.945H907.8C880.142 799.852 842.006 816.39 802.002 816.837C760.767 815.616 721.43 799.255 691.487 770.876L690.772 770.247L690.184 769.577C679.907 757.929 670.583 748.199 661.919 739.112C621.318 696.651 592.871 666.889 592.871 593.384V520.649C541.547 545.276 536.871 588.156 554.622 636.555C580.662 707.636 651.601 790.824 703.64 851.829C718.957 869.789 732.688 885.889 743.316 899.43L849.614 899.448ZM939.871 899.448C986.906 847.067 1030.85 791.992 1071.47 734.504C1082.84 718.95 1094.42 703.119 1106.81 686.566L1107.03 686.256C1124.21 663.31 1142.97 638.965 1164.96 612.054C1165.9 610.892 1165.46 611.452 1166.73 609.898C1172.54 602.898 1173.39 601.804 1164.81 580.64V580.645C1130.53 494.015 1087.86 410.953 1037.41 332.635C1000.03 277.182 958.197 229.846 914.768 207.008C878.178 190.055 839.628 177.7 799.997 170.231C760.362 177.655 721.804 189.96 685.2 206.867C641.801 229.699 599.942 277.036 562.56 332.494C512.101 410.811 469.432 493.879 435.16 580.504C426.578 601.673 427.43 602.707 433.241 609.761C434.517 611.315 434.066 610.755 435.005 611.917C456.999 638.869 475.747 663.2 492.91 686.119L493.16 686.457V686.525C505.538 703.073 517.1 718.891 528.471 734.431V734.435C569.094 791.925 613.035 847 660.071 899.378H704.34C697.13 890.756 689.15 881.386 680.665 871.378C627.117 808.575 554.081 722.979 526.221 646.877C501.019 578.276 510.641 517.82 595.674 486.67C596.066 486.515 596.458 486.406 596.836 486.292L601.695 484.583V484.588C602.556 484.191 603.449 483.881 604.37 483.662C634.229 473.45 664.859 465.62 695.958 460.252C730.324 454.355 765.133 451.406 800.006 451.447C834.112 451.566 868.133 454.847 901.633 461.25C933.972 467.389 965.818 475.893 996.917 486.685C997.268 486.812 997.605 486.935 997.924 487.077C1082.29 518.312 1091.72 578.55 1066.68 647.015C1038.8 723.049 965.782 808.656 912.214 871.447C903.728 881.4 895.749 890.765 888.552 899.447L939.871 899.448ZM1122.16 716.479C1134.01 725.343 1146.06 734.682 1158.65 745.108C1175.17 758.812 1192.5 774.411 1211.25 793.365L1211.24 793.369C1235.34 817.587 1257.59 843.572 1277.81 871.108C1302.68 905.183 1324.16 941.605 1341.96 979.849C1360.12 1019.72 1375.65 1060.74 1388.45 1102.64C1402.29 1146.28 1413.41 1190.73 1421.74 1235.75C1426.52 1254.27 1427.28 1273.6 1423.96 1292.44C1420.27 1301.34 1413.23 1308.42 1404.36 1312.16C1387.03 1321.64 1368.84 1329.49 1350.05 1335.59C1326.05 1343.62 1301.6 1350.23 1276.82 1355.37C1257.65 1359.44 1236.68 1363.12 1214.47 1366.58C1197.68 1369.17 1180.14 1371.6 1162.24 1373.91V1364.12L1162.24 1364.11C1162.13 1356.63 1158.16 1349.75 1151.74 1345.91C1146.71 1342.76 1140.88 1341.09 1134.95 1341.11H1134.4L1134.16 1215.4V1215.4C1145.73 1213.54 1157.58 1214.36 1168.78 1217.8C1181.68 1221.73 1193.14 1229.34 1201.77 1239.7C1206.98 1246.19 1216.48 1247.23 1222.97 1242C1229.46 1236.79 1230.49 1227.29 1225.27 1220.8C1212.88 1205.79 1196.36 1194.73 1177.76 1188.98C1176.87 1188.7 1175.97 1188.43 1175.07 1188.18C1181.48 1185.52 1188.13 1183.47 1194.93 1182.07C1204.07 1180.51 1213.34 1179.89 1222.61 1180.22C1231.66 1180.43 1242.32 1181.36 1252.99 1182.3H1252.99C1257.05 1182.78 1261.13 1181.59 1264.3 1179C1267.47 1176.42 1269.46 1172.66 1269.81 1168.59C1270.16 1164.51 1268.85 1160.47 1266.17 1157.38C1263.49 1154.29 1259.68 1152.42 1255.6 1152.19C1245.26 1151.26 1234.93 1150.36 1223.2 1150.1C1211.92 1149.72 1200.62 1150.5 1189.5 1152.41C1174.89 1155.59 1160.76 1160.7 1147.5 1167.61C1142.94 1169.93 1138.43 1172.43 1134.14 1175.09L1134.06 1129.04V1129.05C1143.75 1117.1 1155.43 1106.92 1168.6 1098.96C1179.9 1093.1 1192.41 1089.91 1205.14 1089.65C1213.29 1088.98 1219.43 1081.95 1218.98 1073.78C1218.53 1065.62 1211.66 1059.29 1203.49 1059.52C1186.27 1059.98 1169.4 1064.43 1154.19 1072.5C1146.99 1076.49 1140.22 1081.21 1133.98 1086.58L1133.74 955.545H1133.74C1133.7 940.701 1127.79 926.478 1117.29 915.988C1106.8 905.492 1092.58 899.582 1077.74 899.545H980.229C1028.43 844.707 1061.24 799.809 1095.86 752.428C1104.42 740.711 1113.12 728.826 1122.16 716.617L1122.16 716.479ZM986.358 421.698C982.466 414.515 984.995 405.542 992.063 401.45C999.136 397.353 1008.18 399.627 1012.47 406.577L1014.71 410.428H1014.71C1018.6 417.61 1016.07 426.589 1009 430.68C1001.93 434.773 992.892 432.498 988.6 425.549L986.358 421.698ZM831.429 244.528C827.674 242.796 824.798 239.597 823.467 235.682C822.137 231.767 822.469 227.479 824.392 223.819C826.311 220.155 829.647 217.444 833.626 216.313C837.599 215.179 841.865 215.73 845.429 217.831C871.478 232.328 895.062 250.871 915.302 272.765C941.265 300.464 964.639 330.479 985.132 362.434C987.666 365.769 988.701 370.008 987.994 374.132C987.283 378.261 984.896 381.906 981.391 384.203C977.891 386.5 973.593 387.243 969.523 386.249C965.458 385.256 961.981 382.622 959.935 378.967C940.47 348.588 918.281 320.041 893.645 293.681C875.634 274.113 854.643 257.524 831.443 244.526L831.429 244.528ZM739.714 1073.25C741.733 1069.74 743.943 1066.34 746.336 1063.07C757.524 1043.82 778.104 1031.99 800.363 1031.99C822.621 1031.99 843.201 1043.82 854.39 1063.07C856.792 1066.33 859.006 1069.73 861.025 1073.25H739.714ZM815.483 1103.49H873.498C877.093 1116.75 878.894 1130.44 878.862 1144.18C879.431 1173.12 870.868 1201.5 854.389 1225.29C844.982 1238.98 831.297 1249.17 815.483 1254.25L815.483 1103.49ZM785.241 1254.26C769.426 1249.17 755.746 1238.98 746.335 1225.29C729.865 1201.5 721.311 1173.12 721.875 1144.19C721.834 1130.44 723.639 1116.75 727.239 1103.49H785.24L785.241 1254.26ZM965.572 1108.85C968.566 1116.56 964.82 1125.23 957.164 1128.34C949.503 1131.44 940.776 1127.81 937.572 1120.19L925.153 1089.72L902.558 1095.32L902.554 1095.32C906.929 1111.22 909.125 1127.65 909.093 1144.15C909.093 1146.95 909.093 1149.65 908.911 1152.37H952.506C960.86 1152.37 967.627 1159.13 967.627 1167.49C967.627 1175.84 960.86 1182.6 952.506 1182.6H905.091C902.398 1195.45 898.201 1207.93 892.586 1219.79L928.889 1235.6C935.739 1238.59 939.357 1246.15 937.402 1253.36L925.193 1297.74V1297.75C923.01 1305.77 914.734 1310.5 906.713 1308.31C898.692 1306.13 893.957 1297.85 896.14 1289.83L904.89 1258.01L876.721 1245.75H876.725C859.367 1271.66 830.068 1287.03 798.882 1286.56C767.697 1286.1 738.867 1269.87 722.288 1243.45L688.869 1258.01L697.605 1289.83C699.793 1297.85 695.058 1306.13 687.037 1308.31C679.016 1310.5 670.74 1305.77 668.557 1297.74L656.348 1253.37V1253.36C654.393 1246.15 658.011 1238.59 664.861 1235.6L706.961 1217.26C701.939 1206.15 698.143 1194.53 695.632 1182.6H648.212C639.864 1182.6 633.096 1175.84 633.096 1167.49C633.096 1159.13 639.864 1152.37 648.212 1152.37H691.807C691.68 1149.65 691.625 1146.91 691.625 1144.15H691.63C691.598 1128.36 693.603 1112.63 697.604 1097.36L666.807 1089.67L654.387 1120.19C651.184 1127.81 642.452 1131.43 634.796 1128.34C627.135 1125.23 623.393 1116.55 626.387 1108.85L643.773 1066.23H643.778C646.653 1059.12 654.405 1055.3 661.792 1057.35L707.994 1068.87C711.896 1060.56 716.585 1052.65 721.994 1045.24C727.427 1037.8 733.688 1030.99 740.656 1024.97L720.914 988.117C717.004 980.771 719.788 971.648 727.13 967.732C734.477 963.822 743.605 966.607 747.515 973.948L766.205 1008.85V1008.85C787.999 999.396 812.735 999.396 834.528 1008.85L853.19 973.948C857.1 966.606 866.228 963.822 873.57 967.732C880.917 971.647 883.701 980.771 879.786 988.117L860.063 1024.97C867.026 1031 873.288 1037.8 878.725 1045.24C883.715 1052.07 888.09 1059.32 891.799 1066.92L930.158 1057.35C937.55 1055.3 945.298 1059.12 948.177 1066.22L965.572 1108.85Z" fill="#C20114"/>
<rect x="5" y="5" width="1590" height="1590" rx="795" stroke="#C20114" stroke-width="10"/>
</svg>
