<svg width="32" height="32" viewBox="0 0 32 32" fill="none" xmlns="http://www.w3.org/2000/svg">
<path d="M10.1483 9.90889C10.1396 10.3501 10.3175 10.7758 10.6991 11.1569C11.1791 11.6369 11.8531 11.9279 12.6114 11.8411L13.25 12.8734C13.3901 13.0998 13.6883 13.172 13.9176 13.031C14.1455 12.8899 14.2153 12.5912 14.0746 12.3638L13.5389 11.4973C13.761 11.3422 13.8701 11.2341 14.0295 11.0009L14.8998 11.5391C15.1292 11.6807 15.4273 11.6085 15.5674 11.3815C15.7081 11.1541 15.6383 10.8549 15.4104 10.7143L14.364 10.067C14.4882 8.8462 13.5374 7.60932 12.43 7.62975C12.349 7.34809 12.2467 7.07652 12.1231 6.81569C12.957 5.9406 13.5291 4.27121 13.5655 3.38769C13.6227 2.00393 12.5366 0.713827 11.1441 0.511427C9.69245 0.303929 8.47026 1.3134 8.41106 2.73975C8.39991 3.00839 8.43918 3.4214 8.53033 3.89276C7.94273 3.74682 7.33126 3.68526 6.69804 3.72547C6.4546 3.74151 6.26116 3.93495 6.24524 4.17827C6.20451 4.80952 6.26701 5.42139 6.41399 6.0115C3.87825 5.52326 2.80919 7.1039 3.03025 8.62483C3.2315 10.0076 4.51191 11.1024 5.90679 11.0462C6.79023 11.0093 8.46095 10.4372 9.33612 9.60182C9.59748 9.72588 9.86903 9.82817 10.1483 9.9087L10.1483 9.90889ZM13.1171 10.5979C12.6749 11.0406 11.8982 10.9838 11.3852 10.4718C10.5838 9.67035 12.1639 8.03931 12.9911 8.86597C13.5031 9.37848 13.5593 10.1552 13.1171 10.5979ZM11.0046 1.47199C11.9195 1.6048 12.6337 2.44657 12.5964 3.34833C12.5518 4.41063 11.55 6.5542 10.8965 6.4494C10.1663 6.34325 9.33335 3.88449 9.37938 2.7806C9.41573 1.91425 10.144 1.34551 11.0046 1.47207L11.0046 1.47199ZM7.20301 4.68319C7.76541 4.6934 8.30458 4.80006 8.81509 4.99111C9.19279 6.14361 9.83613 7.27527 10.7574 7.40903C10.9241 7.4333 11.0837 7.42455 11.2942 7.36392C11.7276 8.3612 11.2699 7.64227 10.45 8.9736C10.257 8.91933 10.069 8.85381 9.88655 8.77485C9.94718 8.56537 9.94863 8.3812 9.9278 8.23861C9.79395 7.31589 8.66572 6.67299 7.51375 6.29581C7.32125 5.78291 7.21418 5.24373 7.20303 4.6832L7.20301 4.68319ZM5.86677 10.0781C4.96978 10.1145 4.12375 9.40177 3.99042 8.48636C3.86198 7.59812 4.45834 6.89657 5.29999 6.86116C6.37927 6.81606 8.86213 7.64855 8.96826 8.37825C9.06618 9.06439 6.90127 10.035 5.86666 10.0781L5.86677 10.0781Z" fill="#016FB9"/>
<path d="M27.8007 14.2437H28.2268C28.495 14.2437 28.7117 14.0265 28.7117 13.7587C28.7117 13.4911 28.495 13.2738 28.2268 13.2738H23.6364L25.6161 7.93917C26.1257 7.72292 26.5567 7.31949 26.788 6.77074C27.2603 5.64981 26.7323 4.35376 25.6117 3.88168C24.4898 3.40802 23.1942 3.93699 22.7216 5.05792C22.4321 5.74541 22.5218 6.49698 22.8904 7.08605L20.3972 13.2751H7.60604C7.3379 13.2751 7.12113 13.4923 7.12113 13.76C7.12113 14.0276 7.3379 14.2449 7.60604 14.2449H8.03217C5.13084 19.9636 7.71801 26.902 13.5159 29.4193V30.2416C13.5159 30.9441 14.0876 31.5158 14.7901 31.5158H21.0426C21.7451 31.5158 22.3173 30.9441 22.3173 30.2416V29.4193C28.089 26.9132 30.7192 19.9959 27.801 14.2441L27.8007 14.2437ZM19.7194 15.5315C18.898 15.5315 18.2295 16.2001 18.2295 17.0219V19.944C18.2295 20.2427 17.986 20.4856 17.6874 20.4856C17.3887 20.4856 17.1458 20.2427 17.1458 19.944V18.6001C17.1458 17.8282 16.5179 17.2003 15.746 17.2003C14.9742 17.2003 14.3458 17.8282 14.3458 18.6001V19.2967C14.3458 19.5338 14.1533 19.7269 13.9157 19.7269C13.6781 19.7267 13.4852 19.5338 13.4852 19.2967V16.8739C13.4852 16.1636 12.9073 15.5857 12.1969 15.5857C11.4866 15.5857 10.9087 16.1636 10.9087 16.8739V17.6676C10.9087 17.7942 10.8059 17.897 10.6793 17.897C10.5528 17.897 10.4499 17.7942 10.4499 17.6676V14.2436H21.8438V17.5348C21.8438 17.7098 21.7013 17.8519 21.5267 17.8519C21.3521 17.8519 21.2096 17.7098 21.2096 17.5348V17.0214C21.2096 16.2 20.5411 15.5315 19.7192 15.5315H19.7194ZM23.6162 5.43386C23.8149 4.96157 24.2741 4.67752 24.7575 4.67752C24.917 4.67752 25.0795 4.70856 25.2356 4.7745C25.8635 5.03918 26.1592 5.76554 25.8945 6.39388C25.6298 7.02127 24.904 7.31754 24.2751 7.05284C23.6467 6.78805 23.3514 6.06178 23.6162 5.43386ZM23.6452 7.80813C23.7276 7.85657 23.8081 7.90803 23.8984 7.94636C24.1029 8.03271 24.3133 8.0748 24.5234 8.09667L22.6024 13.2737H21.4426L23.6452 7.80813ZM9.13083 14.2436H9.48093V17.6676C9.48093 18.3284 10.0186 18.8667 10.68 18.8667C11.3414 18.8667 11.8791 18.329 11.8791 17.6676V16.8739C11.8791 16.6984 12.0221 16.5554 12.1976 16.5554C12.3731 16.5554 12.5161 16.6984 12.5161 16.8739L12.516 19.2967C12.516 20.0686 13.1443 20.6965 13.9162 20.6965C14.6881 20.6965 15.316 20.0686 15.316 19.2967V18.5995C15.316 18.3625 15.5091 18.1694 15.7466 18.1694C15.9836 18.1694 16.1767 18.3625 16.1767 18.5995V19.9435C16.1767 20.7769 16.8545 21.4547 17.6879 21.4547C18.5219 21.4547 19.1997 20.7769 19.1997 19.9435V17.0214C19.1997 16.7344 19.4329 16.5006 19.7199 16.5006C20.0074 16.5006 20.2406 16.7339 20.2406 17.0214V17.5348C20.2406 18.2442 20.8176 18.8216 21.5274 18.8216C22.2372 18.8216 22.8142 18.2441 22.8142 17.5348V14.2436H26.7032C28.806 17.9247 28.4084 22.5783 25.5231 25.894L24.9195 25.2898C24.2499 24.6208 23.16 24.6208 22.4904 25.2898C22.3023 25.4479 22.0948 25.7941 21.7224 25.8053C21.2904 25.7941 20.8836 25.2719 20.7726 25.172C20.1025 24.5189 19.0247 24.5243 18.36 25.1885C18.1821 25.3417 17.9799 25.6641 17.6356 25.6641C17.2293 25.6559 16.8497 25.1836 16.7415 25.0866C16.07 24.4331 14.9932 24.4389 14.3284 25.1027C13.8561 25.5749 13.5546 25.316 13.049 24.8811C12.3987 24.2493 11.2817 24.2575 10.6393 24.8995L10.0051 25.5337C7.34627 22.1766 7.14939 17.7113 9.13096 14.2436L9.13083 14.2436ZM21.3482 30.2404C21.3482 30.4086 21.2114 30.5449 21.0431 30.5449H14.7906C14.6224 30.5449 14.4861 30.4081 14.4861 30.2404V29.6494H21.3483L21.3482 30.2404ZM21.5852 28.6797H14.249C12.8623 28.1396 11.6439 27.3022 10.6471 26.2636L11.3249 25.5858C11.6071 25.3036 12.1002 25.3031 12.3824 25.5858C12.7809 25.9819 13.2357 26.3219 13.8297 26.3248H13.837C14.2627 26.3248 14.6583 26.1445 15.0142 25.789C15.3061 25.4972 15.7802 25.4972 16.0721 25.789C16.1065 25.8234 16.0624 25.7774 16.1026 25.8196C16.5943 26.3505 17.1033 26.6245 17.6173 26.6345C18.4489 26.6501 18.8949 25.9921 19.0456 25.8753C19.3375 25.5834 19.8117 25.5834 20.1036 25.8753C20.5239 26.2956 20.9801 26.7572 21.6972 26.7756C22.552 26.7979 22.9874 26.125 23.176 25.9765C23.4684 25.6847 23.9425 25.6852 24.2339 25.9765L24.8555 26.5981C23.9233 27.4826 22.8208 28.1986 21.5853 28.6797L21.5852 28.6797Z" fill="#016FB9"/>
</svg>
