<svg width="32" height="32" viewBox="0 0 32 32" fill="none" xmlns="http://www.w3.org/2000/svg">
<path d="M28.1566 26.8803L27.2386 19.7936C27.2378 19.7876 27.2368 19.7819 27.2357 19.7758C27.2141 19.6628 27.1874 19.5501 27.1568 19.4416C26.675 17.7303 25.0967 16.5349 23.3192 16.5349C23.166 16.5349 23.0116 16.5437 22.8584 16.5612C22.1739 16.0282 21.3856 15.5937 20.5102 15.2617C20.325 15.1917 20.1369 15.1241 19.9439 15.0632C19.9421 15.0629 19.9403 15.0629 19.9386 15.0622C19.86 15.0391 19.7746 15.0479 19.7031 15.0885C18.6023 15.7114 17.3504 16.0407 16.0821 16.0407C14.8145 16.0407 13.5626 15.7114 12.4618 15.0885L12.3473 15.0234L12.2215 15.0629C11.1236 15.4089 10.149 15.9084 9.3231 16.5488C9.21289 16.5399 9.10227 16.5352 8.99278 16.5352C7.21496 16.5352 5.63704 17.7299 5.15491 19.4408C5.12429 19.5496 5.09804 19.662 5.07637 19.7751L4.15544 26.8791C4.09606 27.3381 4.42106 27.7606 4.88045 27.8199L5.2769 27.8715C5.42055 29.0572 6.4321 29.9845 7.64952 29.9977C7.7715 30.0247 7.89275 30.0382 8.01077 30.0382H24.155C24.2905 30.0382 24.4288 30.0204 24.5657 29.9859C25.6967 29.8843 26.5884 29.0153 26.7385 27.9095L27.4318 27.8199C27.8909 27.7613 28.2158 27.3393 28.1565 26.8802L28.1566 26.8803ZM19.831 15.711L19.4551 17.5439L17.8136 20.3095L17.7026 19.1422C18.039 18.9965 18.2908 18.7052 18.3881 18.3532C18.4169 18.2491 18.4329 18.1402 18.4329 18.0282V17.3321C18.4329 17.0548 18.3384 16.7995 18.1812 16.595C18.1293 16.5271 18.0699 16.4652 18.0051 16.4098C18.6388 16.2522 19.2528 16.019 19.831 15.711L19.831 15.711ZM16.3864 16.7236H17.2177C17.4303 16.7236 17.617 16.8331 17.7261 16.9981L16.3864 18.1835V16.7236ZM16.3864 20.1254L17.1253 19.4712L17.2476 20.7135L16.3864 21.4762L16.3864 20.1254ZM16.3864 23.4174L17.4236 22.4994L17.5459 23.7417L16.3865 24.7678L16.3864 23.4174ZM16.3864 26.7094L17.7215 25.5279L17.8139 26.4676L16.3917 27.8891L16.3864 27.8838L16.3864 26.7094ZM27.3539 27.2189L26.4178 27.3405C26.2699 27.3596 26.1579 27.4834 26.1536 27.6328C26.128 28.5586 25.413 29.3117 24.4903 29.3845C24.4718 29.386 24.4533 29.3891 24.4355 29.3938C24.3406 29.4194 24.2467 29.4322 24.1553 29.4322H16.3865V28.7417L16.3918 28.747L18.4458 26.6937L18.2823 25.0315L18.1067 23.2455L17.9844 22.0033L17.8994 21.195L20.0843 19.5655L20.1586 19.1022L20.6592 19.1734L21.2053 18.7069L21.8997 16.6279C22.1379 16.7801 22.3661 16.9426 22.5817 17.1162C22.6478 17.1695 22.7328 17.1922 22.8171 17.1801L22.88 17.1706C23.0257 17.1517 23.1736 17.1421 23.3198 17.1421C24.8267 17.1421 26.1646 18.1555 26.5731 19.6061C26.5983 19.6957 26.6201 19.7882 26.6382 19.881L27.5552 26.9583C27.5716 27.0856 27.4816 27.2026 27.354 27.2189L27.3539 27.2189Z" fill="#C20114"/>
<path d="M20.6523 25.0008C20.6523 25.3713 20.9528 25.6717 21.3233 25.6717H23.2237C23.5942 25.6717 23.8943 25.3713 23.8943 25.0008V23.3613H20.6527V25.0008H20.6523Z" fill="#C20114"/>
<path d="M22.2734 22.0821L21.574 21.8396L20.6523 22.4469V23.1012H23.8939V22.4469L23.0291 21.354L22.2734 22.0821Z" fill="#C20114"/>
<path d="M19.6863 23.0325C19.6863 23.3203 19.4531 23.5535 19.1654 23.5535C18.8778 23.5535 18.6445 23.3202 18.6445 23.0325C18.6445 22.7449 18.8778 22.5117 19.1654 22.5117C19.4531 22.5117 19.6863 22.7449 19.6863 23.0325Z" fill="#C20114"/>
<path d="M19.6857 28.1123C19.6857 28.3998 19.4526 28.6329 19.1651 28.6329C18.8777 28.6329 18.6445 28.3998 18.6445 28.1123C18.6445 27.8248 18.8777 27.5918 19.1651 27.5918C19.4526 27.5918 19.6857 27.8248 19.6857 28.1123Z" fill="#C20114"/>
<path d="M9.94636 8.03692C10.0065 8.08067 10.0726 8.11723 10.1476 8.14036C10.2158 8.1613 10.7097 8.31036 11.5104 8.47745C11.5111 8.47745 11.5119 8.47776 11.5129 8.47776C11.3561 8.96171 11.2704 9.47723 11.2704 10.0124C11.2704 11.8079 12.2425 13.4734 13.808 14.359C14.5547 14.7814 15.403 15.0048 16.2628 15.0048H16.5665V14.9948C17.3217 14.9485 18.0601 14.7316 18.7187 14.3587C20.2837 13.473 21.2566 11.8072 21.2566 10.012C21.2566 9.48694 21.1745 8.98131 21.0237 8.50558C21.5161 8.39641 22.011 8.26808 22.5081 8.11163C22.805 8.0185 22.9934 7.74579 22.9985 7.44998C23.0867 7.13528 22.9849 6.78435 22.7109 6.5707C22.329 6.27235 21.9336 6.09246 20.5669 5.98726V3.93539C20.5669 2.40715 19.3285 1.16846 17.7997 1.16846H14.4994C12.9712 1.16846 11.7325 2.4072 11.7325 3.93539V5.98872C10.3665 6.09466 9.97355 6.27632 9.59709 6.57686C9.23907 6.8627 9.18043 7.3851 9.46699 7.74342C9.59209 7.9004 9.76344 7.99883 9.94656 8.03696L9.94636 8.03692ZM20.632 10.3515C20.5744 11.0936 20.328 11.8008 19.9293 12.4106C19.9248 12.4169 19.9211 12.4234 19.9165 12.4294C19.8878 12.4732 19.8582 12.5162 19.828 12.5588C19.8191 12.5712 19.8096 12.5837 19.8006 12.5961C19.7736 12.6331 19.7462 12.6701 19.7181 12.7067C19.7032 12.7263 19.6872 12.7452 19.6715 12.7643C19.6481 12.7938 19.6246 12.8234 19.6001 12.8521C19.5591 12.9005 19.5173 12.9482 19.4742 12.9943C19.4739 12.9946 19.4732 12.9954 19.4725 12.9961C19.4124 13.0612 19.3505 13.1241 19.2865 13.1853C19.2858 13.1856 19.2851 13.1863 19.2845 13.187C19.0263 13.4328 18.738 13.6507 18.4198 13.8306C17.8523 14.1516 17.217 14.3418 16.5666 14.387V14.3867C16.5659 14.3867 16.5649 14.3867 16.5638 14.387V11.4686L16.5666 11.4679L20.632 10.3515ZM16.7152 9.56473C16.7152 9.26505 16.9594 9.02212 17.2603 9.02212H20.0037L17.8523 9.89817L17.2709 10.1072H17.2603C16.9591 10.1077 16.7153 9.86484 16.7153 9.56473L16.7152 9.56473ZM16.3365 5.01993V4.61108C17.8895 4.33807 20.0944 4.97556 20.0944 4.97556V5.90609C19.7389 5.90609 19.1838 5.76526 18.6899 5.65724C18.4453 5.60391 18.216 5.55839 18.0332 5.54203C17.0192 5.45099 16.3366 5.54203 16.3366 5.54203L16.3365 5.01993Z" fill="#C20114"/>
</svg>
