<svg width="32" height="32" viewBox="0 0 32 32" fill="none" xmlns="http://www.w3.org/2000/svg">
<path d="M22.0809 17.216V16.6721H26.5609C26.8489 17.6641 27.7449 18.3681 28.8329 18.3681C30.1449 18.3681 31.2009 17.3121 31.2009 16.0001C31.2009 14.6881 30.1449 13.6321 28.8329 13.6321C27.7768 13.6321 26.8809 14.336 26.5609 15.3281L22.0809 15.328V11.552C22.0809 11.2001 21.7929 10.912 21.4409 10.8801C20.7049 10.8161 20.097 10.7201 19.5849 10.5601L21.6649 6.68805H24.5769C24.8649 7.64805 25.7608 8.38411 26.8488 8.38411C28.1608 8.38411 29.2169 7.32805 29.2169 6.01608C29.2169 4.70411 28.1608 3.64805 26.8488 3.64805C25.7928 3.64805 24.8649 4.352 24.5769 5.34411L21.2809 5.344C21.0248 5.344 20.8009 5.47202 20.6728 5.69598L18.3689 10.016C17.3769 9.43992 16.9928 8.73598 16.9928 8.704C16.8009 8.32006 16.4489 8.09598 16.0328 8.09598C15.6168 8.09598 15.2328 8.31993 15.0728 8.704C15.0409 8.73598 14.6889 9.44006 13.6968 10.016L11.3928 5.69598C11.2648 5.47202 11.0409 5.344 10.7848 5.344H7.42481C7.13678 4.35203 6.24086 3.64795 5.15283 3.64795C3.84086 3.64795 2.78481 4.704 2.78481 6.01598C2.78481 7.32795 3.84086 8.384 5.15283 8.384C6.20889 8.384 7.10481 7.68006 7.42481 6.68795H10.3368L12.3848 10.5599C11.8729 10.7199 11.2648 10.848 10.5288 10.8799C10.1768 10.9119 9.88878 11.1999 9.88878 11.5519V15.2959L5.44078 15.296C5.15275 14.3041 4.25683 13.6 3.16881 13.6C1.85683 13.6 0.800781 14.656 0.800781 15.968C0.800781 17.28 1.85683 18.336 3.16881 18.336C4.25683 18.336 5.15275 17.6321 5.44078 16.64H9.92078V17.1839C9.92078 19.1679 10.9768 20.7039 12.2247 21.7599L10.3367 25.2799H7.4247C7.13667 24.2879 6.24075 23.5839 5.15273 23.5839C3.84075 23.5839 2.7847 24.6399 2.7847 25.9519C2.7847 27.2639 3.84075 28.3199 5.15273 28.3199C6.20878 28.3199 7.1047 27.616 7.4247 26.6239H10.7207C10.9767 26.6239 11.2007 26.4958 11.3287 26.2719L13.3127 22.5599C14.5607 23.3919 15.6807 23.7759 15.7766 23.8079C15.8406 23.8399 15.9366 23.8399 16.0006 23.8399C16.0645 23.8399 16.1606 23.8399 16.2245 23.8079C16.3206 23.7759 17.4726 23.3599 18.6885 22.5599L20.6724 26.2719C20.8005 26.4959 21.0244 26.6239 21.2805 26.6239H24.5765C24.8645 27.5839 25.7604 28.3199 26.8484 28.3199C28.1604 28.3199 29.2165 27.2639 29.2165 25.9519C29.2165 24.6399 28.1604 23.5839 26.8484 23.5839C25.7604 23.5839 24.8645 24.2878 24.5765 25.2799H21.6645L19.7764 21.7599C21.0246 20.7039 22.0806 19.1999 22.0806 17.2159L22.0809 17.216ZM16.0009 22.496C15.0409 22.1121 11.2649 20.3841 11.2649 17.184V12.16C14.1129 11.8081 15.4889 10.4 16.0009 9.66397C16.5129 10.4 17.857 11.7759 20.7369 12.16V17.184C20.7369 20.384 16.9609 22.112 16.0009 22.496Z" fill="#016FB9"/>
<path d="M18.6241 15.4239C18.4321 15.3279 18.2721 15.2639 18.048 15.1999V14.3039C18.048 13.1839 17.12 12.2559 16 12.2559C14.88 12.2559 13.952 13.1839 13.952 14.3039V15.1999C13.76 15.2639 13.568 15.328 13.3759 15.4239C13.1839 15.5199 13.0879 15.6799 13.0879 15.9039V18.6239C13.0879 18.9119 13.3118 19.1359 13.5999 19.1359H18.3999C18.6879 19.1359 18.9118 18.9119 18.9118 18.6239V15.9039C18.912 15.6799 18.784 15.488 18.624 15.4239H18.6241ZM16.8641 14.9119C16.288 14.848 15.7121 14.848 15.1361 14.9119V14.2719C15.1361 13.7919 15.52 13.408 16 13.408C16.48 13.408 16.8639 13.7919 16.8639 14.2719L16.8641 14.9119Z" fill="#016FB9"/>
</svg>
