<svg width="96" height="96" viewBox="0 0 96 96" fill="none" xmlns="http://www.w3.org/2000/svg">
<g clip-path="url(#clip0_122_695)">
<path d="M71.9999 64V44C71.9999 31.72 65.4399 21.44 53.9999 18.72V16C53.9999 12.68 51.2799 10 47.9599 10C44.6399 10 41.9999 12.68 41.9999 16V18.72C30.5199 21.44 23.9999 31.68 23.9999 44V64L18.7999 69.16C16.2799 71.68 18.0399 76 21.5999 76H74.2799C77.8399 76 79.6399 71.68 77.1199 69.16L71.9999 64ZM47.9599 88C52.3599 88 55.9599 84.4 55.9599 80H39.9599C39.9599 84.4 43.5199 88 47.9599 88ZM27.0799 18.92C28.7599 17.4 28.7999 14.8 27.1999 13.2C25.6799 11.68 23.1999 11.64 21.6399 13.12C14.7999 19.36 10.0799 27.84 8.55991 37.36C8.19991 39.8 10.0799 42 12.5599 42C14.4799 42 16.1599 40.6 16.4799 38.68C17.6799 30.92 21.5199 24 27.0799 18.92ZM74.3999 13.12C72.7999 11.64 70.3199 11.68 68.7999 13.2C67.1999 14.8 67.2799 17.36 68.9199 18.88C74.4399 23.96 78.3199 30.88 79.5199 38.64C79.7999 40.56 81.4799 41.96 83.4399 41.96C85.8799 41.96 87.7999 39.76 87.3999 37.32C85.8799 27.84 81.1999 19.4 74.3999 13.12Z" fill="black"/>
</g>
<defs>
<clipPath id="clip0_122_695">
<rect width="96" height="96" fill="white"/>
</clipPath>
</defs>
</svg>
