<svg width="96" height="96" viewBox="0 0 96 96" fill="none" xmlns="http://www.w3.org/2000/svg">
<g clip-path="url(#clip0_140_71)">
<path d="M48.0002 88C52.4002 88 56.0002 84.4 56.0002 80H40.0002C40.0002 84.4 43.5602 88 48.0002 88ZM72.0002 64V44C72.0002 31.72 65.4402 21.44 54.0002 18.72V16C54.0002 12.68 51.3202 10 48.0002 10C44.6802 10 42.0002 12.68 42.0002 16V18.72C30.5202 21.44 24.0002 31.68 24.0002 44V64L18.8402 69.16C16.3202 71.68 18.0802 76 21.6402 76H74.3202C77.8802 76 79.6802 71.68 77.1602 69.16L72.0002 64Z" fill="black"/>
</g>
<defs>
<clipPath id="clip0_140_71">
<rect width="96" height="96" fill="white"/>
</clipPath>
</defs>
</svg>
