<svg width="48" height="48" viewBox="0 0 48 48" fill="none" xmlns="http://www.w3.org/2000/svg">
<path d="M20.25 19.9302C20.25 20.3444 20.5855 20.6802 21 20.6802H22.1897L21.3488 21.5214C21.0558 21.8144 21.0558 22.2894 21.3488 22.5819C21.6417 22.8749 22.1164 22.8749 22.4092 22.5819L23.25 21.741V22.9302C23.25 23.3444 23.5855 23.6802 24 23.6802C24.4146 23.6802 24.75 23.3444 24.75 22.9302V21.741L25.5908 22.5819C25.8838 22.8749 26.3585 22.8749 26.6513 22.5819C26.9443 22.2892 26.9443 21.8143 26.6513 21.5214L25.8104 20.6802H27.0001C27.4146 20.6802 27.7501 20.3444 27.7501 19.9302C27.7501 19.516 27.4146 19.1802 27.0001 19.1802H25.8104L26.6513 18.3389C26.9443 18.046 26.9443 17.571 26.6513 17.2785C26.3584 16.9855 25.8837 16.9855 25.5908 17.2785L24.75 18.1194V16.9302C24.75 16.516 24.4146 16.1802 24 16.1802C23.5855 16.1802 23.25 16.516 23.25 16.9302V18.1194L22.4092 17.2785C22.1163 16.9855 21.6416 16.9855 21.3488 17.2785C21.0558 17.5711 21.0558 18.0461 21.3488 18.3389L22.1897 19.1802H21C20.5855 19.1802 20.25 19.516 20.25 19.9302Z" fill="#C20114"/>
<path d="M30.75 19.9302C30.75 20.3444 31.0855 20.6802 31.5 20.6802H32.6897L31.8488 21.5214C31.5558 21.8144 31.5558 22.2894 31.8488 22.5819C32.1417 22.8749 32.6164 22.8749 32.9092 22.5819L33.75 21.741V22.9302C33.75 23.3444 34.0855 23.6802 34.5 23.6802C34.9146 23.6802 35.25 23.3444 35.25 22.9302V21.741L36.0908 22.5819C36.3838 22.8749 36.8585 22.8749 37.1513 22.5819C37.4443 22.2892 37.4443 21.8143 37.1513 21.5214L36.3104 20.6802H37.5001C37.9146 20.6802 38.2501 20.3444 38.2501 19.9302C38.2501 19.516 37.9146 19.1802 37.5001 19.1802H36.3104L37.1513 18.3389C37.4443 18.046 37.4443 17.571 37.1513 17.2785C36.8584 16.9855 36.3837 16.9855 36.0908 17.2785L35.25 18.1194V16.9302C35.25 16.516 34.9146 16.1802 34.5 16.1802C34.0855 16.1802 33.75 16.516 33.75 16.9302V18.1194L32.9092 17.2785C32.6163 16.9855 32.1416 16.9855 31.8488 17.2785C31.5558 17.5711 31.5558 18.0461 31.8488 18.3389L32.6897 19.1802H31.5C31.0855 19.1802 30.75 19.516 30.75 19.9302Z" fill="#C20114"/>
<path d="M10.8486 22.5819C11.1416 22.8749 11.6162 22.8749 11.9091 22.5819L12.7499 21.741V22.9302C12.7499 23.3444 13.0853 23.6802 13.4999 23.6802C13.9144 23.6802 14.2499 23.3444 14.2499 22.9302V21.741L15.0907 22.5819C15.3836 22.8749 15.8583 22.8749 16.1512 22.5819C16.4441 22.2892 16.4441 21.8143 16.1512 21.5214L15.3102 20.6802H16.4999C16.9144 20.6802 17.2499 20.3444 17.2499 19.9302C17.2499 19.516 16.9145 19.1802 16.4999 19.1802H15.3102L16.1512 18.3389C16.4441 18.046 16.4441 17.571 16.1512 17.2785C15.8582 16.9855 15.3835 16.9855 15.0907 17.2785L14.2499 18.1194V16.9302C14.2499 16.516 13.9144 16.1802 13.4999 16.1802C13.0853 16.1802 12.7499 16.516 12.7499 16.9302V18.1194L11.9091 17.2785C11.6161 16.9855 11.1414 16.9855 10.8486 17.2785C10.5556 17.5711 10.5556 18.0461 10.8486 18.3389L11.6897 19.1802H10.5C10.0855 19.1802 9.75 19.516 9.75 19.9302C9.75 20.3444 10.0855 20.6802 10.5 20.6802H11.6897L10.8486 21.5214C10.5556 21.8144 10.5556 22.2894 10.8486 22.5819Z" fill="#C20114"/>
<path d="M24.3273 27.2053L26.3889 29.4307L29.8897 26.187L30 23.6802L27.4923 23.79L24.3273 27.2053ZM21.636 30.11L20.3034 31.5482L19.2779 30.5222L18.6426 31.1575L20.0692 32.5852L18.0007 34.6541L19.0246 35.6786L21.0936 33.6097L22.5218 35.0361L23.1566 34.3999L22.1311 33.376L23.645 31.9732L21.636 30.11ZM29.3588 31.1585L28.7212 30.5237L27.6967 31.5502L20.5073 23.7896L18 23.6814L18.1108 26.1882L25.8689 33.3766L24.8434 34.4026L25.4778 35.0374L26.906 33.6102L28.9744 35.6802L30 34.6537L27.9315 32.5858L29.3588 31.1585Z" fill="#C20114"/>
<path d="M18.1733 29.1865H9.43333C4.77573 29.1865 1 25.4108 1 20.7532V20.7532C1 16.0956 4.77573 12.3198 9.43333 12.3198H38.5667C43.2243 12.3198 47 16.0956 47 20.7532V20.7532C47 25.4108 43.2243 29.1865 38.5667 29.1865H29.3667" stroke="#C20114" stroke-width="2"/>
</svg>
