<svg width="96" height="96" viewBox="0 0 96 96" fill="none" xmlns="http://www.w3.org/2000/svg">
<g clip-path="url(#clip0_140_65)">
<path d="M77.6373 51.92C77.7973 50.64 77.9173 49.36 77.9173 48C77.9173 46.64 77.7973 45.36 77.6373 44.08L86.0773 37.48C86.8373 36.88 87.0373 35.8 86.5573 34.92L78.5573 21.08C78.0773 20.2 76.9973 19.88 76.1173 20.2L66.1573 24.2C64.0773 22.6 61.8373 21.28 59.3973 20.28L57.8773 9.68C57.7573 8.72 56.9173 8 55.9173 8H39.9173C38.9173 8 38.0773 8.72 37.9573 9.68L36.4373 20.28C33.9973 21.28 31.7573 22.64 29.6773 24.2L19.7173 20.2C18.7973 19.84 17.7573 20.2 17.2773 21.08L9.27733 34.92C8.75733 35.8 8.99733 36.88 9.75733 37.48L18.1973 44.08C18.0373 45.36 17.9173 46.68 17.9173 48C17.9173 49.32 18.0373 50.64 18.1973 51.92L9.75733 58.52C8.99733 59.12 8.79733 60.2 9.27733 61.08L17.2773 74.92C17.7573 75.8 18.8373 76.12 19.7173 75.8L29.6773 71.8C31.7573 73.4 33.9973 74.72 36.4373 75.72L37.9573 86.32C38.0773 87.28 38.9173 88 39.9173 88H55.9173C56.9173 88 57.7573 87.28 57.8773 86.32L59.3973 75.72C61.8373 74.72 64.0773 73.36 66.1573 71.8L76.1173 75.8C77.0373 76.16 78.0773 75.8 78.5573 74.92L86.5573 61.08C87.0373 60.2 86.8373 59.12 86.0773 58.52L77.6373 51.92ZM47.9173 62C40.1973 62 33.9173 55.72 33.9173 48C33.9173 40.28 40.1973 34 47.9173 34C55.6373 34 61.9173 40.28 61.9173 48C61.9173 55.72 55.6373 62 47.9173 62Z" fill="black"/>
</g>
<defs>
<clipPath id="clip0_140_65">
<rect width="96" height="96" fill="white"/>
</clipPath>
</defs>
</svg>
