<svg width="32" height="32" viewBox="0 0 32 32" fill="none" xmlns="http://www.w3.org/2000/svg">
<g clip-path="url(#clip0_2_628)">
<path d="M31.498 10.9998C31.498 6.86431 28.1334 3.49978 23.998 3.49978C23.4435 3.49978 22.9049 3.56478 22.3844 3.67926L19.998 1.29281L17.5585 3.73228L14.953 1.12676C14.6365 0.810302 14.2619 0.605288 13.8705 0.533742C13.2085 0.410721 12.5555 0.613742 12.084 1.08572C11.612 1.55718 11.4105 2.20873 11.532 2.87217C11.6035 3.26364 11.8085 3.63822 12.125 3.95468L12.5056 4.28521L10.6445 6.14625L11.3515 6.85323L13.2126 4.9922C13.5886 4.61614 13.5886 4.00366 13.2126 3.62772L12.832 3.24718C12.712 3.12718 12.5601 2.93364 12.5156 2.6922C12.4545 2.35668 12.5545 2.02865 12.7911 1.7922C13.0281 1.55574 13.3566 1.45614 13.6911 1.51668C13.9326 1.56116 14.1261 1.71313 14.2461 1.83313L16.8516 4.43865L14.291 6.99979L16.6774 9.38625C16.633 9.58771 16.6005 9.7927 16.5724 9.99979H2.99805C1.61951 9.99979 0.498047 11.1213 0.498047 12.4998V24.9998C0.498047 26.3783 1.61951 27.4998 2.99805 27.4998H6.49805V28.4998H5.99805C4.61951 28.4998 3.49805 29.6213 3.49805 30.9998V31.4998H23.498V30.9998C23.498 29.6213 22.3766 28.4998 20.998 28.4998H20.498V27.4998H23.998C25.3766 27.4998 26.498 26.3783 26.498 24.9998V18.0622C29.4066 17.0292 31.498 14.2577 31.498 10.9998L31.498 10.9998ZM15.7049 6.99978L19.998 2.70672L21.301 4.00973C19.334 4.7712 17.7695 6.33578 17.0079 8.3028L15.7049 6.99978ZM3.49795 16.9998H19.498V16.9858C20.628 17.8373 22.0019 18.3753 23.498 18.4748V21.4998H3.49795V16.9998ZM3.49795 15.9998V12.9998H16.7769C17.0904 14.1298 17.6608 15.1508 18.4233 15.9998H3.49795ZM22.4124 30.4998H4.58329C4.78975 29.9178 5.34579 29.4998 5.99777 29.4998H20.9978C21.6497 29.4998 22.2058 29.9178 22.4122 30.4998H22.4124ZM19.498 28.4998H7.49795V27.4998H19.498V28.4998ZM23.998 26.4998H2.99795C2.17097 26.4998 1.49795 25.8268 1.49795 24.9998V24.4998H25.498V24.9998C25.498 25.8268 24.8249 26.4998 23.998 26.4998ZM25.498 23.4998H1.49795V12.4998C1.49795 11.6728 2.17097 10.9998 2.99795 10.9998H16.498C16.498 11.3398 16.5285 11.6718 16.5724 11.9998H2.49803V22.4998H24.498V18.4742C24.837 18.4517 25.1725 18.4147 25.498 18.3481L25.498 23.4998ZM23.998 17.4998C20.414 17.4998 17.498 14.5838 17.498 10.9998C17.498 7.41578 20.414 4.49978 23.998 4.49978C27.582 4.49978 30.498 7.41578 30.498 10.9998C30.498 14.5838 27.582 17.4998 23.998 17.4998Z" fill="#E8F1F2"/>
<path d="M23.0983 6.59003C23.3938 6.53003 23.6974 6.49951 23.9994 6.49951V5.49951C23.6308 5.49951 23.2608 5.53649 22.9004 5.60951L23.0983 6.59003Z" fill="#E8F1F2"/>
<path d="M18.5 10.9996H19.5C19.5 9.2096 20.56 7.59053 22.2 6.87347L21.8 5.95752C19.7955 6.83304 18.5 8.81192 18.5 10.9994V10.9996Z" fill="#E8F1F2"/>
<path d="M10.5 8H11.5V9H10.5V8Z" fill="#E8F1F2"/>
<path d="M11.7051 7.91412L12.4122 7.20703L13.1193 7.91412L12.4122 8.62122L11.7051 7.91412Z" fill="#E8F1F2"/>
<path d="M12.5 6H13.5V7H12.5V6Z" fill="#E8F1F2"/>
<path d="M10.5 4H11.5V5H10.5V4Z" fill="#E8F1F2"/>
<path d="M8.87891 5.08551L9.586 4.37842L10.2931 5.08551L9.586 5.7926L8.87891 5.08551Z" fill="#E8F1F2"/>
<path d="M8.5 6H9.5V7H8.5V6Z" fill="#E8F1F2"/>
<path d="M8.87891 7.91364L9.586 7.20654L10.2931 7.91364L9.586 8.62073L8.87891 7.91364Z" fill="#E8F1F2"/>
<path d="M4.5 14H5.5V15H4.5V14Z" fill="#E8F1F2"/>
<path d="M6.5 14H7.5V15H6.5V14Z" fill="#E8F1F2"/>
<path d="M8.5 14H9.5V15H8.5V14Z" fill="#E8F1F2"/>
</g>
<defs>
<clipPath id="clip0_2_628">
<rect width="32" height="32" fill="white"/>
</clipPath>
</defs>
</svg>
