<svg width="32" height="32" viewBox="0 0 32 32" fill="none" xmlns="http://www.w3.org/2000/svg">
<path d="M13.7168 13.5224C13.7168 13.7745 13.921 13.9789 14.1733 13.9789H14.8975L14.3856 14.4909C14.2073 14.6693 14.2073 14.9584 14.3856 15.1364C14.5639 15.3148 14.8529 15.3148 15.0311 15.1364L15.5429 14.6246V15.3484C15.5429 15.6006 15.7471 15.805 15.9994 15.805C16.2518 15.805 16.456 15.6006 16.456 15.3484V14.6246L16.9677 15.1364C17.1461 15.3148 17.435 15.3148 17.6133 15.1364C17.7916 14.9583 17.7916 14.6692 17.6133 14.4909L17.1014 13.9789H17.8255C18.0779 13.9789 18.2821 13.7745 18.2821 13.5224C18.2821 13.2702 18.0779 13.0658 17.8255 13.0658H17.1014L17.6133 12.5538C17.7916 12.3754 17.7916 12.0863 17.6133 11.9083C17.4349 11.7299 17.146 11.7299 16.9677 11.9083L16.456 12.4201V11.6963C16.456 11.4441 16.2518 11.2397 15.9994 11.2397C15.7471 11.2397 15.5429 11.4441 15.5429 11.6963V12.4201L15.0311 11.9083C14.8528 11.7299 14.5639 11.7299 14.3856 11.9083C14.2073 12.0864 14.2073 12.3755 14.3856 12.5538L14.8975 13.0658H14.1733C13.921 13.0658 13.7168 13.2702 13.7168 13.5224Z" fill="#E8F1F2"/>
<path d="M20.1094 13.5224C20.1094 13.7745 20.3136 13.9789 20.5659 13.9789H21.29L20.7782 14.4909C20.5999 14.6693 20.5999 14.9584 20.7782 15.1364C20.9565 15.3148 21.2454 15.3148 21.4237 15.1364L21.9355 14.6246V15.3484C21.9355 15.6006 22.1397 15.805 22.392 15.805C22.6443 15.805 22.8485 15.6006 22.8485 15.3484V14.6246L23.3603 15.1364C23.5386 15.3148 23.8276 15.3148 24.0058 15.1364C24.1842 14.9583 24.1842 14.6692 24.0058 14.4909L23.494 13.9789H24.2181C24.4704 13.9789 24.6746 13.7745 24.6746 13.5224C24.6746 13.2702 24.4704 13.0658 24.2181 13.0658H23.494L24.0058 12.5538C24.1842 12.3754 24.1842 12.0863 24.0058 11.9083C23.8275 11.7299 23.5386 11.7299 23.3603 11.9083L22.8485 12.4201V11.6963C22.8485 11.4441 22.6443 11.2397 22.392 11.2397C22.1397 11.2397 21.9355 11.4441 21.9355 11.6963V12.4201L21.4237 11.9083C21.2454 11.7299 20.9564 11.7299 20.7782 11.9083C20.5999 12.0864 20.5999 12.3755 20.7782 12.5538L21.29 13.0658H20.5659C20.3136 13.0658 20.1094 13.2702 20.1094 13.5224Z" fill="#E8F1F2"/>
<path d="M7.99488 15.1364C8.17321 15.3148 8.46214 15.3148 8.64039 15.1364L9.15219 14.6246V15.3484C9.15219 15.6006 9.35638 15.805 9.60871 15.805C9.86103 15.805 10.0652 15.6006 10.0652 15.3484V14.6246L10.577 15.1364C10.7553 15.3148 11.0443 15.3148 11.2225 15.1364C11.4009 14.9583 11.4009 14.6692 11.2225 14.4909L10.7107 13.9789H11.4348C11.6871 13.9789 11.8913 13.7745 11.8913 13.5224C11.8913 13.2702 11.6871 13.0658 11.4348 13.0658H10.7107L11.2225 12.5538C11.4009 12.3754 11.4009 12.0863 11.2225 11.9083C11.0442 11.7299 10.7553 11.7299 10.577 11.9083L10.0652 12.4201V11.6963C10.0652 11.4441 9.86103 11.2397 9.60871 11.2397C9.35638 11.2397 9.15219 11.4441 9.15219 11.6963V12.4201L8.64039 11.9083C8.46207 11.7299 8.17314 11.7299 7.99488 11.9083C7.81656 12.0864 7.81656 12.3755 7.99488 12.5538L8.50685 13.0658H7.78269C7.53038 13.0658 7.32617 13.2702 7.32617 13.5224C7.32617 13.7745 7.53037 13.9789 7.78269 13.9789H8.50685L7.99488 14.4909C7.81656 14.6693 7.81656 14.9584 7.99488 15.1364Z" fill="#E8F1F2"/>
<path d="M16.1991 17.9509L17.4539 19.3055L19.5849 17.3311L19.652 15.8052L18.1256 15.872L16.1991 17.9509ZM14.5609 19.719L13.7497 20.5944L13.1255 19.9699L12.7388 20.3566L13.6072 21.2256L12.3481 22.485L12.9714 23.1086L14.2307 21.8492L15.1001 22.7174L15.4865 22.3302L14.8623 21.707L15.7837 20.8531L14.5609 19.719ZM19.2617 20.3572L18.8736 19.9708L18.25 20.5956L13.8738 15.8718L12.3477 15.8059L12.4151 17.3318L17.1374 21.7074L16.5132 22.3319L16.8993 22.7183L17.7687 21.8496L19.0278 23.1095L19.652 22.4847L18.3929 21.226L19.2617 20.3572Z" fill="#E8F1F2"/>
<path d="M12.4533 19.1568H7.13333C4.29827 19.1568 2 16.8585 2 14.0235V14.0235C2 11.1884 4.29827 8.89014 7.13333 8.89014H24.8667C27.7017 8.89014 30 11.1884 30 14.0235V14.0235C30 16.8585 27.7017 19.1568 24.8667 19.1568H19.2667" stroke="#E8F1F2" stroke-width="2"/>
</svg>
