<svg width="32" height="32" viewBox="0 0 32 32" fill="none" xmlns="http://www.w3.org/2000/svg">
<path d="M9.54194 19.7376C9.44996 19.6312 9.28996 19.6195 9.18381 19.7112L7.21298 21.4127C7.10683 21.5044 7.09517 21.6647 7.18652 21.7709C7.23683 21.829 7.30767 21.859 7.37881 21.859C7.43746 21.859 7.49663 21.8387 7.54465 21.7973L9.51548 20.0958C9.62193 20.0041 9.63361 19.8439 9.54194 19.7376Z" fill="#E8F1F2"/>
<path d="M12.7701 23.2517L18.4616 24.2649C18.4766 24.2677 18.4916 24.2689 18.5063 24.2689C18.6272 24.2689 18.7341 24.1826 18.756 24.0594C18.7805 23.9215 18.6884 23.7894 18.5505 23.7651L12.8591 22.7519C12.7194 22.7258 12.5891 22.8192 12.5645 22.9577C12.54 23.0951 12.632 23.2271 12.7701 23.2517Z" fill="#E8F1F2"/>
<path d="M18.3941 25.7464C18.4203 25.6088 18.3298 25.4759 18.1922 25.4495L12.2213 24.314C12.0834 24.2881 11.9506 24.3783 11.9244 24.5162C11.8983 24.6538 11.9887 24.7867 12.1263 24.8131L18.0972 25.9486C18.1133 25.9516 18.1292 25.9532 18.1449 25.9532C18.2643 25.9529 18.3708 25.8681 18.3941 25.7464Z" fill="#E8F1F2"/>
<path d="M17.1496 26.9467L12.3115 25.8239C12.1748 25.7925 12.0382 25.8775 12.0067 26.0141C11.9749 26.1505 12.06 26.2871 12.1967 26.3186L17.0348 27.4414C17.0541 27.446 17.0734 27.4478 17.0924 27.4478C17.2079 27.4478 17.3123 27.3683 17.3395 27.2512C17.3713 27.1151 17.2863 26.9782 17.1496 26.9467Z" fill="#E8F1F2"/>
<path d="M7.94966 19.4834C7.85768 19.3774 7.69768 19.3656 7.59131 19.4572L6.57798 20.3334C6.47204 20.425 6.46037 20.5855 6.55204 20.6917C6.60235 20.7498 6.67318 20.7796 6.74433 20.7796C6.80297 20.7796 6.86214 20.7593 6.91047 20.718L7.92381 19.8418C8.02964 19.75 8.04131 19.5895 7.94964 19.4834L7.94966 19.4834Z" fill="#E8F1F2"/>
<path d="M6.11465 26.7281C6.11465 26.8686 6.2284 26.9821 6.3686 26.9821C6.50881 26.9821 6.62256 26.8686 6.62256 26.7281C6.62256 26.2324 6.2784 25.8179 5.81747 25.7033V25.4913C5.81747 25.3508 5.70372 25.2373 5.56351 25.2373C5.4233 25.2373 5.30955 25.3508 5.30955 25.4913V25.703C4.84705 25.8173 4.50195 26.2318 4.50195 26.728C4.50195 27.2253 4.84705 27.6408 5.30955 27.7553V28.8273C5.13257 28.7353 5.00987 28.5527 5.00987 28.3404C5.00987 28.2 4.89612 28.0865 4.75592 28.0865C4.61571 28.0865 4.50196 28.2 4.50196 28.3404C4.50196 28.8365 4.84705 29.2511 5.30956 29.3654V29.5772C5.30956 29.7176 5.42331 29.8312 5.56352 29.8312C5.70372 29.8312 5.81747 29.7176 5.81747 29.5772V29.3651C6.27841 29.2505 6.62257 28.8361 6.62257 28.3403C6.62257 27.8446 6.27841 27.4301 5.81747 27.3155V26.2415C5.9932 26.3343 6.11467 26.5164 6.11467 26.7281L6.11465 26.7281ZM5.00985 26.7281C5.00985 26.5159 5.13224 26.3335 5.30953 26.2413V27.217C5.13255 27.1248 5.00985 26.9415 5.00985 26.7281ZM6.11465 28.3409C6.11465 28.5526 5.99329 28.7347 5.81745 28.827V27.8548C5.99317 27.947 6.11465 28.1291 6.11465 28.3409Z" fill="#E8F1F2"/>
<path d="M5.57768 24.4775H5.56373C3.87759 24.4775 2.50586 25.8492 2.50586 27.5351C2.50586 29.2116 3.87117 30.5821 5.56373 30.5903C7.24831 30.5903 8.61893 29.2199 8.61893 27.5351C8.61893 25.8572 7.25466 24.4858 5.57759 24.4775H5.57768ZM5.55227 30.0826C4.15269 30.0758 3.01392 28.9329 3.01392 27.5353C3.01392 26.1294 4.15779 24.9855 5.56371 24.9855H5.57569C6.9735 24.9926 8.1111 26.1365 8.1111 27.5353C8.111 28.9398 6.9684 30.0826 5.55227 30.0826Z" fill="#E8F1F2"/>
<path d="M29.4076 24.017C29.2944 23.7435 29.0813 23.5296 28.807 23.4151L24.6675 21.6929L25.3733 13.0001C25.4639 12.5872 25.3801 12.1534 25.1394 11.8052C24.8925 11.4484 24.504 11.2127 24.0728 11.1589L18.8362 10.5128C18.5093 9.09254 17.6012 8.25756 16.9294 7.64262C16.3122 7.07649 15.9044 6.70273 15.9044 6.11804V4.76865C16.1635 4.65001 16.3413 4.39073 16.3413 4.09156V0.253957C16.3413 0.113541 16.2276 0 16.0874 0H14.175C14.0347 0 13.921 0.113541 13.921 0.253957V4.09156C13.921 4.39198 14.1001 4.65209 14.3579 4.76969V6.11822C14.3579 7.38532 15.1696 8.1274 15.8858 8.78188C16.3882 9.24134 16.8645 9.68166 17.1488 10.3044L12.8992 9.7799C12.5071 9.4027 12.2739 9.08428 12.1299 8.72772C12.0858 8.61824 11.9715 8.55397 11.8559 8.57178C11.7393 8.58959 11.6505 8.68532 11.6413 8.80293C11.64 8.81897 11.6148 9.14981 11.6058 9.63594C11.1012 9.64584 10.6341 9.9473 10.4322 10.4184L7.90316 16.2659C7.7566 16.5994 7.70045 16.9686 7.74108 17.3331L7.78649 17.7418C7.78774 17.7529 7.78983 17.7644 7.79128 17.7758L5.57848 19.8182C4.83235 20.5087 4.78483 21.6778 5.47286 22.425L7.46171 24.5784C7.82537 24.9715 8.32161 25.1707 8.81921 25.1707C9.26641 25.1707 9.71441 25.0097 10.068 24.6842L10.7156 24.0866L9.58534 27.6124C9.56326 27.6815 9.57159 27.7569 9.60867 27.8194C9.64576 27.8816 9.70742 27.9256 9.77888 27.9393L15.8031 29.1078L15.803 31.7463V31.7465C15.803 31.7795 15.8096 31.8125 15.8226 31.8435C15.8355 31.8747 15.8544 31.9026 15.878 31.926C15.8783 31.9262 15.8783 31.9262 15.8786 31.9262C15.9019 31.9493 15.9294 31.9675 15.9601 31.9802C15.9911 31.9929 16.0239 31.9998 16.0569 31.9998H22.655C22.6552 31.9998 22.6558 31.9996 22.6561 31.9996C22.6929 31.9994 22.7274 31.9907 22.7589 31.9765C22.7604 31.9757 22.7622 31.9763 22.764 31.9754C22.7757 31.9698 22.7833 31.9602 22.7937 31.9533C22.8094 31.9427 22.826 31.9332 22.8389 31.9196C22.85 31.9076 22.8572 31.8935 22.8658 31.8797C22.8746 31.8657 22.8845 31.8532 22.8907 31.8375C22.8975 31.82 22.899 31.8012 22.9018 31.7824C22.9036 31.77 22.9092 31.7591 22.9092 31.7461L22.9091 25.2013L27.3072 27.0289C27.4451 27.0857 27.5884 27.1127 27.7293 27.1127C28.1652 27.1127 28.5803 26.8549 28.7587 26.4291L29.4058 24.8681C29.5206 24.594 29.5211 24.2918 29.4076 24.0172L29.4076 24.017ZM21.6996 24.6969L22.4013 24.9874V30.6202L20.5082 26.6386L21.5543 24.6143C21.6016 24.6431 21.6468 24.6747 21.6996 24.697L21.6996 24.6969ZM19.8624 25.7169L20.2241 26.0819L19.9991 26.5172C19.9625 26.5875 19.9613 26.6711 19.9952 26.7429L20.2128 27.2011L18.993 28.4283L19.8624 25.7169ZM18.6093 29.538C18.6162 29.5311 18.6225 29.5237 18.6284 29.5161L20.4447 27.6885L22.2529 31.4922H16.6673L18.6093 29.538ZM21.1025 23.2446C20.9662 23.5722 20.9969 23.9397 21.1762 24.2399L20.4694 25.6075L20.0374 25.1715L20.9941 22.1867H21.5412L21.1025 23.2446ZM21.7521 21.6789H21.1568L21.7306 19.8894L22.0458 19.941C22.1387 19.956 22.2314 19.9634 22.323 19.9634C23.1197 19.9632 23.8392 19.4151 24.0269 18.6219L24.6021 16.2232L24.1747 21.488L23.2013 21.0834C22.6388 20.8519 21.9894 21.1181 21.7521 21.6789ZM16.2284 8.40689C15.5276 7.76668 14.8659 7.16169 14.8659 6.11814V4.83814H15.3967V6.11814C15.3967 6.92606 15.9217 7.40753 16.5865 8.01732C17.2097 8.58793 17.9666 9.29118 18.2908 10.4456L17.722 10.3755C17.4172 9.50169 16.8152 8.94377 16.2283 8.40692L16.2284 8.40689ZM12.1126 9.67825C12.2772 9.8845 12.4522 10.0592 12.6091 10.2065C12.7876 10.3746 12.9801 10.5397 13.1666 10.6992C13.5671 11.0429 13.9768 11.3941 14.3168 11.8263C14.1799 11.7839 14.0522 11.7557 13.9306 11.7402C13.6413 11.7038 13.3617 11.8308 13.1978 12.0736C13.0345 12.3157 13.0216 12.6232 13.1632 12.8752C13.693 13.8237 14.5697 14.3152 15.5638 14.2258C15.7538 14.2085 15.9382 14.1651 16.1174 14.1074C16.2688 14.2469 16.3102 14.4089 16.2485 14.6233C16.1037 14.6687 15.9572 14.7061 15.8027 14.7302C14.9885 14.8536 14.2183 14.6641 13.5751 14.1821C12.8341 13.6264 12.3478 12.7398 12.2065 11.6872C12.1224 11.0512 12.1074 10.3688 12.1097 9.90787C12.1107 9.8286 12.1114 9.75173 12.1126 9.67829L12.1126 9.67825ZM9.72335 24.3111C9.18242 24.8094 8.3346 24.7748 7.83428 24.2339L5.84575 22.0804C5.3474 21.5395 5.38199 20.6917 5.92273 20.1914L7.96086 18.31C8.16076 18.6938 8.51148 18.9848 8.94065 19.1042L10.775 19.617C11.2057 19.7406 11.6708 19.6746 12.0512 19.4359L12.9762 18.8591C13.3018 18.655 13.6934 18.5757 14.0776 18.6382L14.1403 18.6484C14.5248 19.1897 14.4565 19.9416 13.9618 20.3998L9.72335 24.3111ZM11.4729 23.3876L13.5113 21.5067L19.0425 22.3712C19.0557 22.3732 19.0689 22.3742 19.0821 22.3742C19.205 22.3742 19.3129 22.2845 19.3325 22.1593C19.354 22.0206 19.2593 21.8909 19.1209 21.869L13.9881 21.0667L14.3071 20.7723C14.875 20.2463 15.039 19.4384 14.7733 18.7513L21.2237 19.8059L18.2552 29.0657L10.1562 27.4946L11.4729 23.3876ZM17.9135 29.5172L16.3112 31.1299V29.2064L17.9135 29.5172ZM28.9372 24.6724L28.2901 26.2333C28.1621 26.5396 27.8083 26.6861 27.5018 26.559L22.7844 24.5992C22.774 24.593 22.7634 24.5877 22.7522 24.5831L21.8958 24.2286C21.8075 24.1913 21.7325 24.1353 21.6721 24.0638C21.668 24.0585 21.6647 24.0531 21.6604 24.0482C21.5223 23.8745 21.4872 23.6431 21.5717 23.4397L22.2191 21.8786C22.3474 21.5728 22.7014 21.427 23.0075 21.5533L24.3027 22.0914V22.0912L28.612 23.8844C28.7614 23.9466 28.8774 24.0629 28.9389 24.2118C28.9998 24.36 28.9995 24.5236 28.9371 24.6724L28.9372 24.6724Z" fill="#E8F1F2"/>
<path d="M23.6521 22.6137L23.4656 22.6826L23.5299 22.5282C23.5838 22.3987 23.5223 22.2498 23.3927 22.196C23.2634 22.1429 23.1146 22.2034 23.0607 22.3332L22.9972 22.4861L22.9167 22.3101C22.8582 22.1824 22.7074 22.1264 22.5802 22.1847C22.4527 22.2428 22.3964 22.3934 22.4548 22.5209L22.6641 22.9783L22.1915 23.1526C22.0599 23.2011 21.9926 23.3473 22.0412 23.4789C22.079 23.5813 22.1761 23.6447 22.2794 23.6447C22.3086 23.6447 22.3383 23.6396 22.3673 23.629L22.5504 23.5614L22.4867 23.7148C22.4328 23.8443 22.4943 23.9932 22.6239 24.047C22.6556 24.0603 22.6887 24.0663 22.7212 24.0663C22.8207 24.0663 22.9152 24.0076 22.9558 23.9098L23.0201 23.7555L23.1029 23.936C23.1456 24.0292 23.2375 24.084 23.3338 24.084C23.3693 24.084 23.4051 24.0766 23.4397 24.0609C23.5672 24.0024 23.623 23.8516 23.5647 23.7241L23.3547 23.2651L23.8281 23.0907C23.9599 23.0424 24.0272 22.8961 23.9788 22.7645C23.9297 22.6328 23.7837 22.5657 23.6521 22.6137Z" fill="#E8F1F2"/>
<path d="M25.898 23.5486L25.7115 23.6174L25.7758 23.463C25.8299 23.3336 25.7687 23.1847 25.6391 23.1308C25.5101 23.0763 25.361 23.1379 25.3069 23.2675L25.2437 23.4192L25.1627 23.2422C25.1042 23.1145 24.9536 23.0586 24.8262 23.1168C24.6987 23.1749 24.6424 23.3255 24.7008 23.453L24.9106 23.9125L24.4375 24.0872C24.3059 24.1359 24.2386 24.282 24.2874 24.4135C24.3252 24.5159 24.4223 24.5794 24.5256 24.5794C24.5548 24.5794 24.5845 24.5743 24.6137 24.5636L24.7968 24.4958L24.7331 24.6495C24.6792 24.7789 24.7407 24.9278 24.8703 24.9816C24.9021 24.9949 24.9351 25.0009 24.9676 25.0009C25.0672 25.0009 25.1616 24.9423 25.2023 24.8445L25.2671 24.6885L25.3488 24.8676C25.3915 24.961 25.4837 25.0161 25.58 25.0161C25.6153 25.0161 25.6511 25.0087 25.6854 24.993C25.8129 24.9349 25.8692 24.7843 25.8108 24.6568L25.6021 24.1996L26.0741 24.0253C26.2057 23.9767 26.273 23.8305 26.2244 23.6989C26.1756 23.5673 26.0298 23.5003 25.898 23.5485L25.898 23.5486Z" fill="#E8F1F2"/>
<path d="M28.1427 24.4824L27.9588 24.5497L28.0226 24.3971C28.0767 24.2676 28.0155 24.119 27.8859 24.0649C27.7569 24.0103 27.6078 24.072 27.5537 24.2016L27.4895 24.356L27.407 24.1759C27.3485 24.0484 27.1977 23.9927 27.0702 24.0509C26.9427 24.1093 26.8869 24.2601 26.9452 24.3876L27.1552 24.8463L26.6828 25.0185C26.551 25.0665 26.4829 25.2122 26.5311 25.3441C26.5687 25.4469 26.666 25.511 26.7696 25.511C26.7985 25.511 26.8277 25.5059 26.8564 25.4954L27.0436 25.4271L26.9797 25.5808C26.9256 25.7102 26.9867 25.8591 27.1163 25.9129C27.1481 25.9264 27.1813 25.9325 27.2138 25.9325C27.3134 25.9325 27.4076 25.8739 27.4482 25.7764L27.5112 25.625L27.5923 25.802C27.635 25.8952 27.7272 25.9503 27.8234 25.9503C27.8587 25.9503 27.8946 25.9429 27.9288 25.9272C28.0563 25.8691 28.1127 25.7185 28.0542 25.5908L27.8445 25.1326L28.3169 24.9599C28.4486 24.9117 28.5162 24.7656 28.468 24.6341C28.4203 24.502 28.2743 24.4352 28.1427 24.4824Z" fill="#E8F1F2"/>
<path d="M8.84457 21.8057C8.185 21.8057 7.64844 22.3423 7.64844 23.0018C7.64844 23.6598 8.1851 24.1952 8.84457 24.1952C9.50414 24.1952 10.0407 23.6598 10.0407 23.0018C10.0408 22.3425 9.50414 21.8057 8.84457 21.8057Z" fill="#E8F1F2"/>
</svg>
