<svg width="32" height="32" viewBox="0 0 32 32" fill="none" xmlns="http://www.w3.org/2000/svg">
<g clip-path="url(#clip0_150_484)">
<path d="M20.3768 16.9326L22.5534 13.8512C22.6327 13.739 22.6429 13.5919 22.5796 13.47C22.5164 13.348 22.3905 13.2714 22.2531 13.2714H19.5757V12.4495C21.4423 12.2079 23.0417 11.777 24.1311 11.2004C24.2498 11.1376 24.3249 11.015 24.3268 10.8807C24.3287 10.7464 24.2572 10.6216 24.1403 10.5554L22.6577 9.71559C22.2207 9.46801 21.7244 9.33723 21.2224 9.33723H19.9639L19.4325 5.71623C19.3504 5.15623 18.8617 4.73389 18.2956 4.73389H17.5023C17.1028 4.73389 16.7261 4.94623 16.5192 5.28811L16.3552 5.55913C16.2808 5.68202 16.1452 5.75858 16.0014 5.75858C15.8575 5.75858 15.7218 5.6821 15.6474 5.55905L15.4835 5.28803C15.2765 4.94623 14.8998 4.73389 14.5004 4.73389H13.7071C13.141 4.73389 12.6522 5.15623 12.5701 5.71623L12.0386 9.33723H10.7802C10.2782 9.33723 9.78184 9.46809 9.34488 9.71559L7.8623 10.5554C7.74535 10.6216 7.67387 10.7464 7.67582 10.8807C7.67777 11.015 7.75277 11.1375 7.87152 11.2004C8.9609 11.7769 10.5603 12.2078 12.4269 12.4495V13.2714L9.74932 13.2714C9.6119 13.2714 9.48596 13.3481 9.42276 13.47C9.35956 13.5921 9.36972 13.7392 9.44894 13.8513L11.6255 16.9327C9.50914 17.2318 7.87594 19.0551 7.87594 21.2529V27.0321C7.87594 27.2352 8.04055 27.3998 8.24368 27.3998H23.7587C23.9618 27.3998 24.1264 27.2352 24.1264 27.0321L24.1265 21.2529C24.1265 19.0551 22.4932 17.2319 20.3769 16.9327L20.3768 16.9326ZM21.5431 14.0068L19.5069 16.8894H18.0711V14.0068H21.5431ZM14.2991 13.2713H13.1622V12.5334C14.0652 12.6231 15.0198 12.6703 16.0012 12.6703C16.9826 12.6703 17.9371 12.6231 18.8402 12.5334V13.2713H17.7033C17.5002 13.2713 17.3356 13.436 17.3356 13.6391V14.0078C16.4482 13.7669 15.5542 13.7669 14.6668 14.0078V13.6391C14.6668 13.436 14.5022 13.2713 14.299 13.2713H14.2991ZM13.2974 5.82294C13.3271 5.62138 13.503 5.46934 13.7068 5.46934H14.5001C14.6439 5.46934 14.7796 5.54582 14.8541 5.66879L15.0178 5.93957C15.2246 6.28161 15.6014 6.49404 16.0011 6.49404C16.4008 6.49404 16.7777 6.28153 16.9842 5.93965L17.1481 5.66887C17.2226 5.54583 17.3584 5.46934 17.5021 5.46934H18.2954C18.4992 5.46934 18.6752 5.62137 18.7048 5.82294L18.9885 7.7556H13.0139L13.2974 5.82294ZM8.84904 10.8417L9.70724 10.3556C10.0339 10.1705 10.4049 10.0727 10.7801 10.0727H21.2225C21.5976 10.0727 21.9686 10.1705 22.2953 10.3556L23.1535 10.8417C21.4591 11.5234 18.8101 11.9349 16.0013 11.9349C13.1927 11.9349 10.5435 11.5233 8.84908 10.8417H8.84904ZM10.4594 14.0069H13.9314V16.8895H12.4957L10.4594 14.0069ZM15.6336 26.6643H10.9138V22.6405C10.9138 22.4374 10.7492 22.2728 10.546 22.2728C10.3429 22.2728 10.1783 22.4374 10.1783 22.6405V26.6643H8.61156V21.2529C8.61156 19.2525 10.239 17.6251 12.2394 17.6251H14.0823L15.6337 20.4437L15.6336 26.6643ZM14.9216 17.6251H17.0808L16.0011 19.5867L14.9216 17.6251ZM23.391 26.6643H21.8243V22.6405C21.8243 22.4374 21.6597 22.2728 21.4565 22.2728C21.2534 22.2728 21.0888 22.4374 21.0888 22.6405V26.6643H16.369V20.4437L17.9203 17.6251H19.7633C21.7637 17.6251 23.3911 19.2526 23.3911 21.2529L23.391 26.6643Z" fill="#C40179"/>
<path d="M18.9687 21.1162H17.6158C17.4127 21.1162 17.248 21.2808 17.248 21.484C17.248 21.6871 17.4127 21.8517 17.6158 21.8517H18.9687C19.1718 21.8517 19.3364 21.6871 19.3364 21.484C19.3364 21.2808 19.1718 21.1162 18.9687 21.1162Z" fill="#C40179"/>
<path d="M20.2996 21.1162H20.0377C19.8345 21.1162 19.6699 21.2808 19.6699 21.484C19.6699 21.6871 19.8345 21.8517 20.0377 21.8517H20.2996C20.5027 21.8517 20.6674 21.6871 20.6674 21.484C20.6674 21.2808 20.5028 21.1162 20.2996 21.1162Z" fill="#C40179"/>
<path d="M26.3708 18.3165V17.0294C26.3708 16.8263 26.2062 16.6617 26.0031 16.6617L22.7115 16.6616C22.5084 16.6616 22.3438 16.8262 22.3438 17.0294C22.3438 17.2325 22.5084 17.3971 22.7115 17.3971H25.6353V18.3159C25.0791 18.4755 24.6708 18.9888 24.6708 19.5956C24.6708 20.3297 25.2679 20.9269 26.002 20.9269C26.7361 20.9269 27.3332 20.3297 27.3332 19.5956C27.3332 18.9895 26.926 18.4769 26.3707 18.3166L26.3708 18.3165Z" fill="#C40179"/>
<path d="M22.7116 8.8654H26.0032C26.2063 8.8654 26.3709 8.70079 26.3709 8.49766L26.3708 7.21048C26.9261 7.05017 27.3332 6.53744 27.3332 5.93134C27.3332 5.19728 26.736 4.6001 26.002 4.6001C25.268 4.6001 24.6708 5.19728 24.6708 5.93134C24.6708 6.5383 25.079 7.0515 25.6353 7.2111V8.12986L22.7115 8.12994C22.5084 8.12994 22.3438 8.29455 22.3438 8.49768C22.3438 8.70081 22.5084 8.86542 22.7115 8.86542L22.7116 8.8654Z" fill="#C40179"/>
<path d="M26.0038 11.4326C25.3974 11.4326 24.8843 11.8404 24.7244 12.3961H23.2818C23.0787 12.3961 22.9141 12.5607 22.9141 12.7639C22.9141 12.967 23.0787 13.1316 23.2818 13.1316H24.7244C24.8843 13.6873 25.3973 14.0951 26.0038 14.0951C26.7379 14.0951 27.3351 13.498 27.3351 12.7639C27.3351 12.0298 26.7378 11.4326 26.0038 11.4326V11.4326Z" fill="#C40179"/>
<path d="M6.36593 18.3159V17.3972H9.28973C9.49285 17.3972 9.65747 17.2326 9.65747 17.0294C9.65747 16.8263 9.49286 16.6617 9.28973 16.6617L5.99813 16.6616C5.79501 16.6616 5.63039 16.8262 5.63039 17.0294V18.3165C5.07515 18.4768 4.66797 18.9895 4.66797 19.5956C4.66797 20.3297 5.26515 20.9268 5.99921 20.9268C6.73327 20.9268 7.33039 20.3297 7.33039 19.5956C7.33039 18.9888 6.92219 18.4755 6.36593 18.3159Z" fill="#C40179"/>
<path d="M5.63039 7.21042V8.49752C5.63039 8.70064 5.795 8.86526 5.99813 8.86526H9.28973C9.49285 8.86526 9.65747 8.70065 9.65747 8.49752C9.65747 8.29439 9.49286 8.12978 9.28973 8.12978L6.36593 8.12986V7.2111C6.92217 7.05149 7.33039 6.5382 7.33039 5.93134C7.33039 5.19728 6.73329 4.6001 5.99921 4.6001C5.26515 4.6001 4.66797 5.19728 4.66797 5.93134C4.66797 6.53744 5.07523 7.05016 5.63039 7.2104V7.21042Z" fill="#C40179"/>
<path d="M5.99921 14.0951C6.60577 14.0951 7.11875 13.6874 7.27867 13.1316H8.72125C8.92437 13.1316 9.08899 12.967 9.08899 12.7639C9.08899 12.5607 8.92438 12.3961 8.72125 12.3961H7.27867C7.11875 11.8404 6.60571 11.4326 5.99921 11.4326C5.26515 11.4326 4.66797 12.0299 4.66797 12.7639C4.66797 13.4979 5.26515 14.0951 5.99921 14.0951Z" fill="#C40179"/>
</g>
<defs>
<clipPath id="clip0_150_484">
<rect width="24" height="24" fill="white" transform="translate(4 4)"/>
</clipPath>
</defs>
</svg>
