<svg width="32" height="32" viewBox="0 0 32 32" fill="none" xmlns="http://www.w3.org/2000/svg">
<path fill-rule="evenodd" clip-rule="evenodd" d="M21.6916 26.3701V25.7929H10.3074V26.3714V26.3713C10.3233 26.4869 10.3952 26.5873 10.4995 26.6397C10.6828 26.749 10.8935 26.8043 11.1069 26.799H20.8915C21.1049 26.8043 21.3156 26.749 21.4989 26.6397C21.6032 26.5873 21.675 26.4869 21.6909 26.3713L21.6916 26.3701ZM10.814 25.2733H21.2148L21.2026 18.6649C21.2023 18.5481 21.1557 18.436 21.073 18.3534C20.9904 18.2707 20.8784 18.2242 20.7615 18.2238H11.2383C11.1214 18.2243 11.0095 18.2709 10.9268 18.3535C10.8442 18.4362 10.7976 18.5481 10.7971 18.6649L10.8149 25.2745L10.814 25.2733ZM9.78896 25.8375C9.482 25.7979 9.182 25.7562 8.8935 25.7118C8.51288 25.6535 8.15334 25.5904 7.82474 25.5197L7.82482 25.5198C7.39998 25.4315 6.98076 25.3183 6.56936 25.1807C6.24726 25.076 5.93554 24.9415 5.63842 24.7789C5.48631 24.7148 5.3656 24.5934 5.3024 24.441C5.24545 24.118 5.25849 23.7865 5.34052 23.4689C5.48326 22.6973 5.67372 21.9353 5.91098 21.1873C6.13058 20.4691 6.39684 19.7659 6.70808 19.0823C7.01316 18.4267 7.38144 17.8024 7.80768 17.2183C8.154 16.7462 8.5351 16.3007 8.948 15.8855C9.26988 15.5601 9.56676 15.2927 9.85018 15.0578C10.0662 14.8787 10.2726 14.7189 10.4756 14.567C10.6307 14.7763 10.7795 14.9801 10.9266 15.1809C11.5201 15.9931 12.0824 16.7628 12.9088 17.7029H11.2383C10.9838 17.7033 10.7399 17.8046 10.5599 17.9846C10.38 18.1645 10.2787 18.4084 10.2783 18.6629L10.2843 20.9071H10.2842C10.1781 20.8156 10.0629 20.7351 9.94034 20.6671C9.67964 20.5287 9.39042 20.4526 9.09534 20.4446C9.02573 20.4389 8.95683 20.4616 8.90417 20.5075C8.85159 20.5534 8.81979 20.6186 8.81597 20.6883C8.81214 20.7581 8.83659 20.8263 8.88393 20.8777C8.9312 20.9291 8.99722 20.9591 9.06698 20.9611C9.28526 20.9656 9.49964 21.0202 9.69338 21.1207C9.91986 21.2575 10.1208 21.4326 10.2874 21.6381L10.2895 22.4302C10.2147 22.3836 10.1362 22.3397 10.0563 22.2994V22.2993C9.82893 22.1808 9.58681 22.0931 9.33627 22.0387C9.14556 22.0059 8.95197 21.9926 8.75861 21.9991C8.55751 22.0034 8.38041 22.019 8.20321 22.0349C8.13321 22.0388 8.06782 22.071 8.02196 22.1239C7.97602 22.1769 7.95352 22.2462 7.95954 22.316C7.96563 22.3858 7.99969 22.4503 8.05399 22.4945C8.10829 22.5388 8.17821 22.5592 8.2479 22.5511C8.43079 22.535 8.61368 22.5189 8.76868 22.5153C8.9275 22.5097 9.0865 22.5203 9.24314 22.547C9.35978 22.5711 9.47376 22.6062 9.58368 22.6519C9.56805 22.6562 9.55274 22.6608 9.53735 22.6656C9.21853 22.7642 8.93547 22.9538 8.72281 23.2111C8.63335 23.3224 8.65101 23.4851 8.76226 23.5746C8.87359 23.6641 9.03632 23.6464 9.12578 23.5351C9.27375 23.3575 9.47032 23.2271 9.69148 23.1598C9.8857 23.1002 10.091 23.0864 10.2915 23.1195L10.2973 25.2735H10.2579C10.156 25.2731 10.0562 25.3017 9.96985 25.3557C9.85969 25.4214 9.79149 25.5396 9.78961 25.6678V25.8357L9.78896 25.8375ZM19.0318 11.0593C18.5784 10.909 18.1156 10.7888 17.6464 10.6993C17.1034 10.5965 16.552 10.5443 15.9993 10.5433C15.431 10.5428 14.8636 10.591 14.3035 10.6873C13.8508 10.7653 13.4042 10.8751 12.9669 11.0158V12.4558C12.9669 13.5099 13.3954 13.958 14.0068 14.5976C14.1629 14.7608 14.3297 14.9353 14.495 15.1222H14.495C14.912 15.5182 15.459 15.7486 16.0336 15.7703C16.581 15.7614 17.1018 15.5335 17.4797 15.1374C17.6583 14.9332 17.8248 14.7579 17.9808 14.5936C18.5887 13.954 19.0317 13.4876 19.0317 12.456L19.0318 11.0593ZM16.85 17.7049C17.0324 17.4738 17.2675 17.1978 17.5301 16.8889C18.4222 15.8427 19.6385 14.4169 20.0849 13.1981C20.3729 12.4083 20.3158 11.7041 19.5502 11.2741V12.457C19.5502 13.6937 19.0463 14.2239 18.3556 14.951C18.1974 15.1176 18.0289 15.2949 17.8607 15.4879L17.8475 15.502H17.8474C17.3733 15.9976 16.7195 16.2811 16.0338 16.2888C15.3269 16.2678 14.6525 15.9874 14.1392 15.5009L14.127 15.4901L14.1169 15.4786C13.9407 15.2789 13.7809 15.1121 13.6323 14.9563C12.9363 14.2284 12.4487 13.7182 12.4487 12.4581V11.2113C11.5688 11.6334 11.4887 12.3685 11.793 13.1982C12.2394 14.4167 13.4555 15.8428 14.3476 16.8886C14.6101 17.1965 14.8455 17.4725 15.0277 17.7046L16.85 17.7049ZM18.3972 17.7049C19.2035 16.807 19.9568 15.8629 20.6532 14.8774C20.8481 14.6107 21.0466 14.3393 21.259 14.0555L21.2628 14.0502C21.5573 13.6569 21.8789 13.2395 22.256 12.7782C22.272 12.7583 22.2644 12.7679 22.2862 12.7412C22.3858 12.6212 22.4004 12.6025 22.2533 12.2397V12.2398C21.6657 10.7547 20.9342 9.33076 20.0693 7.98816C19.4285 7.03754 18.7114 6.22606 17.9669 5.83456C17.3396 5.54394 16.6788 5.33214 15.9994 5.2041C15.3199 5.33137 14.6589 5.5423 14.0314 5.83214C13.2875 6.22354 12.5699 7.03504 11.929 7.98574C11.064 9.32832 10.3326 10.7523 9.74503 12.2373C9.59792 12.6002 9.61253 12.618 9.71214 12.7389C9.73402 12.7655 9.72629 12.7559 9.74238 12.7759C10.1194 13.2379 10.4408 13.655 10.735 14.0479L10.7393 14.0537V14.0548C10.9515 14.3385 11.1497 14.6097 11.3447 14.8761V14.8762C12.0411 15.8617 12.7943 16.8058 13.6007 17.7038H14.3596C14.236 17.556 14.0992 17.3953 13.9537 17.2238C13.0357 16.1471 11.7837 14.6798 11.3061 13.3752C10.8741 12.1991 11.039 11.1628 12.4967 10.6288C12.5034 10.6261 12.5102 10.6242 12.5166 10.6223L12.5999 10.593V10.5931C12.6147 10.5863 12.63 10.581 12.6458 10.5772C13.1577 10.4021 13.6827 10.2679 14.2159 10.1759C14.805 10.0748 15.4017 10.0242 15.9995 10.0249C16.5842 10.027 17.1674 10.0832 17.7417 10.193C18.2961 10.2982 18.842 10.444 19.3752 10.629C19.3812 10.6312 19.387 10.6333 19.3924 10.6357C20.8387 11.1712 21.0004 12.2039 20.5711 13.3775C20.0932 14.681 18.8414 16.1485 17.9231 17.2249C17.7776 17.3956 17.6408 17.5561 17.5175 17.7049L18.3972 17.7049ZM21.5222 14.5684C21.7253 14.7203 21.9319 14.8804 22.1477 15.0591C22.4309 15.2941 22.728 15.5615 23.0494 15.8864L23.0493 15.8865C23.4624 16.3016 23.8439 16.7471 24.1905 17.2191C24.6168 17.8033 24.9851 18.4276 25.2902 19.0833C25.6014 19.7668 25.8677 20.47 26.0872 21.1883C26.3245 21.9363 26.515 22.6983 26.6578 23.4701C26.7398 23.7876 26.7528 24.119 26.6959 24.442C26.6327 24.5944 26.512 24.7158 26.3599 24.78C26.0628 24.9426 25.751 25.0771 25.4289 25.1817C25.0174 25.3194 24.5983 25.4326 24.1735 25.5208C23.8449 25.5905 23.4854 25.6536 23.1047 25.7129C22.8167 25.7573 22.5162 25.7991 22.2092 25.8387V25.6707L22.2093 25.6706C22.2075 25.5424 22.1393 25.4244 22.0293 25.3586C21.943 25.3045 21.8432 25.276 21.7414 25.2763H21.732L21.7279 23.1213V23.1212C21.9263 23.0894 22.1293 23.1035 22.3215 23.1625C22.5425 23.2298 22.739 23.3603 22.8868 23.5379C22.9763 23.6491 23.139 23.6669 23.2504 23.5773C23.3616 23.4879 23.3793 23.3252 23.2898 23.2139C23.0773 22.9566 22.7942 22.7669 22.4753 22.6684C22.4601 22.6636 22.4446 22.659 22.4292 22.6547C22.5391 22.609 22.6532 22.5739 22.7697 22.5498C22.9264 22.5231 23.0853 22.5125 23.2442 22.5181C23.3993 22.5217 23.5821 22.5378 23.765 22.5539H23.765C23.8347 22.562 23.9046 22.5416 23.9589 22.4973C24.0133 22.453 24.0473 22.3886 24.0533 22.3187C24.0593 22.2489 24.0368 22.1796 23.991 22.1266C23.945 22.0737 23.8797 22.0416 23.8097 22.0377C23.6325 22.0218 23.4554 22.0062 23.2543 22.0019C23.0609 21.9954 22.8673 22.0087 22.6766 22.0415C22.4261 22.0959 22.1839 22.1836 21.9566 22.3021C21.8784 22.3417 21.8011 22.3847 21.7276 22.4302L21.7262 21.6408V21.6409C21.8923 21.4361 22.0926 21.2616 22.3183 21.1251C22.5121 21.0247 22.7264 20.9701 22.9447 20.9655C23.0844 20.9541 23.1896 20.8335 23.182 20.6935C23.1743 20.5536 23.0565 20.4451 22.9164 20.449C22.6213 20.457 22.3321 20.5332 22.0714 20.6715C21.9478 20.74 21.8318 20.8208 21.7248 20.913L21.7207 18.6666H21.7207C21.72 18.4122 21.6187 18.1683 21.4388 17.9885C21.2589 17.8086 21.0151 17.7073 20.7607 17.7066H19.0891C19.9154 16.7665 20.4778 15.9969 21.0713 15.1846C21.2181 14.9838 21.3672 14.78 21.5222 14.5707L21.5222 14.5684ZM19.1941 9.51495C19.1274 9.39183 19.1708 9.23799 19.292 9.16785C19.4132 9.09762 19.5682 9.1366 19.6418 9.25574L19.6802 9.32176H19.6802C19.7469 9.44488 19.7035 9.5988 19.5823 9.66894C19.4612 9.73909 19.3062 9.70011 19.2326 9.58097L19.1941 9.51495ZM16.5382 6.47775C16.4738 6.44806 16.4246 6.39322 16.4017 6.32611C16.3789 6.259 16.3846 6.18549 16.4176 6.12275C16.4505 6.05994 16.5077 6.01345 16.5759 5.99408C16.644 5.97462 16.7171 5.98408 16.7782 6.02009C17.2248 6.26861 17.6291 6.58649 17.976 6.96181C18.4211 7.43665 18.8218 7.95119 19.1731 8.49899C19.2166 8.55618 19.2343 8.62884 19.2222 8.69953C19.21 8.77032 19.1691 8.83282 19.109 8.87219C19.049 8.91157 18.9753 8.9243 18.9056 8.90727C18.8359 8.89024 18.7763 8.84508 18.7412 8.78242C18.4075 8.26164 18.0271 7.77226 17.6048 7.32038C17.296 6.98492 16.9362 6.70054 16.5385 6.47772L16.5382 6.47775ZM14.966 20.6843C15.0006 20.6242 15.0385 20.5659 15.0795 20.5099C15.2713 20.18 15.6241 19.9771 16.0057 19.9771C16.3872 19.9771 16.74 20.18 16.9318 20.5099C16.973 20.5658 17.011 20.6241 17.0456 20.6843H14.966ZM16.2649 21.2028H17.2594C17.321 21.4302 17.3519 21.6648 17.3514 21.9004C17.3611 22.3965 17.2143 22.8829 16.9318 23.2908C16.7706 23.5255 16.536 23.7002 16.2649 23.7873L16.2649 21.2028ZM15.7464 23.7874C15.4753 23.7001 15.2408 23.5255 15.0795 23.2908C14.7971 22.8829 14.6505 22.3964 14.6602 21.9005C14.6595 21.6649 14.6904 21.4302 14.7521 21.2028H15.7464L15.7464 23.7874ZM18.8378 21.2948C18.8892 21.4268 18.8249 21.5756 18.6937 21.6288C18.5624 21.6819 18.4127 21.6197 18.3578 21.4892L18.1449 20.9667L17.7576 21.0628L17.7575 21.0627C17.8325 21.3354 17.8702 21.6171 17.8696 21.8999C17.8696 21.9478 17.8696 21.9942 17.8665 22.0407H18.6138C18.757 22.0407 18.8731 22.1567 18.8731 22.2999C18.8731 22.4431 18.757 22.5591 18.6138 22.5591H17.801C17.7548 22.7792 17.6829 22.9932 17.5866 23.1966L18.209 23.4675C18.3264 23.5188 18.3884 23.6485 18.3549 23.7721L18.1456 24.5328V24.5329C18.1082 24.6704 17.9663 24.7515 17.8288 24.7141C17.6913 24.6767 17.6101 24.5348 17.6476 24.3973L17.7976 23.8517L17.3147 23.6415H17.3147C17.0172 24.0858 16.5149 24.3492 15.9803 24.3412C15.4457 24.3332 14.9515 24.0551 14.6672 23.6021L14.0943 23.8517L14.2441 24.3973C14.2816 24.5348 14.2004 24.6766 14.0629 24.7141C13.9254 24.7515 13.7836 24.6704 13.7461 24.5329L13.5368 23.7721V23.772C13.5033 23.6484 13.5653 23.5188 13.6828 23.4675L14.4045 23.1531C14.3184 22.9627 14.2533 22.7635 14.2103 22.5591H13.3974C13.2542 22.5591 13.1382 22.443 13.1382 22.2999C13.1382 22.1567 13.2542 22.0407 13.3974 22.0407H14.1447C14.1425 21.9941 14.1416 21.9471 14.1416 21.8998H14.1417C14.1411 21.6291 14.1755 21.3595 14.2441 21.0977L13.7161 20.9659L13.5032 21.4891C13.4483 21.6197 13.2986 21.6819 13.1674 21.6288C13.036 21.5755 12.9719 21.4268 13.0232 21.2948L13.3213 20.564H13.3213C13.3706 20.4422 13.5035 20.3767 13.6302 20.4118L14.4222 20.6093C14.4891 20.467 14.5695 20.3313 14.6622 20.2042C14.7553 20.0766 14.8627 19.96 14.9821 19.8567L14.6437 19.225C14.5767 19.0991 14.6244 18.9427 14.7502 18.8755C14.8762 18.8085 15.0327 18.8562 15.0997 18.9821L15.4201 19.5804V19.5805C15.7937 19.4184 16.2178 19.4184 16.5913 19.5805L16.9113 18.9821C16.9783 18.8562 17.1348 18.8085 17.2606 18.8755C17.3866 18.9427 17.4343 19.0991 17.3672 19.225L17.0291 19.8567C17.1485 19.9601 17.2558 20.0766 17.349 20.2042C17.4346 20.3213 17.5096 20.4457 17.5731 20.5759L18.2307 20.4118C18.3574 20.3767 18.4903 20.4422 18.5396 20.564L18.8378 21.2948Z" fill="#C40179"/>
</svg>
