<svg width="32" height="32" viewBox="0 0 32 32" fill="none" xmlns="http://www.w3.org/2000/svg">
<path d="M27.6244 21.6989C27.6244 24.7122 23.2396 25.1456 22.6682 22.1861C21.2125 21.9034 20.6111 21.2358 19.793 20.7666V19.4072C20.8997 19.8643 21.3689 20.6403 22.7223 20.9711C23.5644 18.2103 27.6244 18.8419 27.6244 21.6989Z" fill="#231F20"/>
<path d="M27.6242 14.8845C27.6242 17.7597 23.5522 18.3551 22.7162 15.6123C21.453 15.9251 20.8937 16.695 19.793 17.1642V15.8168C20.6049 15.3416 21.2124 14.68 22.662 14.3973C23.2335 11.444 27.6244 11.865 27.6244 14.8845L27.6242 14.8845Z" fill="#231F20"/>
<path d="M31.0931 9.04987C31.0931 10.5235 29.8961 11.7205 28.4225 11.7205C27.1593 11.7205 26.1007 10.8364 25.8301 9.65137C25.1504 9.73553 23.4121 9.27846 21.9205 10.7581L20.7596 11.925C20.4649 12.2197 20.1402 12.4723 19.7912 12.6769V11.7446C19.7912 11.5701 19.7611 11.4077 19.707 11.2514C20.2123 10.8182 20.6033 10.307 21.0724 9.90409C22.9972 8.00939 25.1866 8.53867 25.83 8.44846C26.1008 7.26355 27.1593 6.37939 28.4224 6.37939C29.8961 6.37939 31.0931 7.57627 31.0931 9.04979L31.0931 9.04987Z" fill="#231F20"/>
<path d="M31.0932 27.5333C31.0932 29.007 29.8962 30.204 28.4225 30.204C27.1534 30.204 26.0948 29.3198 25.8241 28.1348C25.1804 28.0446 22.979 28.5678 21.0785 26.6792C20.6033 26.2701 20.2124 25.7649 19.707 25.3318C19.7612 25.1814 19.7912 25.013 19.7912 24.8446V23.9062C21.5716 24.9949 22.1189 26.9319 24.6032 26.9319H25.8242C26.0949 25.7468 27.1535 24.8627 28.4227 24.8627C29.8964 24.8628 31.0933 26.0598 31.0933 27.5333L31.0932 27.5333Z" fill="#231F20"/>
<path d="M8.58789 17.7246H15.0732V18.8597H8.58789V17.7246Z" fill="#231F20"/>
<path d="M6.07259 14.9797C6.07259 15.2931 5.81843 15.5472 5.50499 15.5472C5.19155 15.5472 4.9375 15.2931 4.9375 14.9797C4.9375 14.6662 5.19156 14.4121 5.50499 14.4121C5.81843 14.4121 6.07259 14.6662 6.07259 14.9797Z" fill="#231F20"/>
<path d="M8.58789 21.0371H15.0732V22.1722H8.58789V21.0371Z" fill="#231F20"/>
<path d="M6.07238 18.292C6.07238 18.6053 5.81832 18.8594 5.50489 18.8594C5.19155 18.8594 4.9375 18.6053 4.9375 18.292C4.9375 17.9787 5.19156 17.7246 5.50489 17.7246C5.81833 17.7246 6.07238 17.9787 6.07238 18.292Z" fill="#231F20"/>
<path d="M18.2853 11.4378H16.5267V8.5807C16.5267 4.80603 13.4768 1.7959 9.74804 1.7959C6.0067 1.7959 2.96937 4.83937 2.96937 8.5807V11.4378H1.20478C1.03989 11.4378 0.90625 11.5714 0.90625 11.7362V24.8471C0.90625 25.012 1.0399 25.1457 1.20478 25.1457H18.2915C18.4562 25.1457 18.5899 25.012 18.5899 24.8471V11.7423C18.5899 11.5748 18.4529 11.4378 18.2854 11.4378L18.2853 11.4378ZM5.76001 8.5807C5.76001 6.37923 7.54646 4.58683 9.74801 4.58683C11.9323 4.58683 13.736 6.3487 13.736 8.5807V11.4378H5.76028L5.76001 8.5807ZM5.50501 22.7735C4.86064 22.7735 4.33616 22.2489 4.33616 21.6043C4.33616 20.9596 4.86074 20.4355 5.50501 20.4355C6.15002 20.4355 6.67448 20.9597 6.67448 21.6043C6.67448 22.249 6.15 22.7735 5.50501 22.7735ZM5.50501 19.461C4.86064 19.461 4.33616 18.9367 4.33616 18.2921C4.33616 17.6474 4.86074 17.1233 5.50501 17.1233C6.15002 17.1233 6.67448 17.6475 6.67448 18.2921C6.67448 18.9367 6.15 19.461 5.50501 19.461ZM5.50501 16.1487C4.86064 16.1487 4.33616 15.6244 4.33616 14.9798C4.33616 14.3352 4.86074 13.8107 5.50501 13.8107C6.15002 13.8107 6.67448 14.3353 6.67448 14.9798C6.67448 15.6245 6.15 16.1487 5.50501 16.1487ZM15.6751 22.473C15.6751 22.6392 15.5407 22.7737 15.3744 22.7737H8.28749C8.12124 22.7737 7.98677 22.6392 7.98677 22.473V20.7363C7.98677 20.57 8.12125 20.4356 8.28749 20.4356H15.3744C15.5407 20.4356 15.6751 20.5701 15.6751 20.7363V22.473ZM15.6751 19.1604C15.6751 19.3267 15.5407 19.4612 15.3744 19.4612L8.28749 19.4613C8.12124 19.4613 7.98677 19.3268 7.98677 19.1605V17.4239C7.98677 17.2576 8.12125 17.1231 8.28749 17.1231H15.3744C15.5407 17.1231 15.6751 17.2576 15.6751 17.4239V19.1604ZM15.6751 15.8482C15.6751 16.0144 15.5407 16.1489 15.3744 16.1489H8.28749C8.12124 16.1489 7.98677 16.0144 7.98677 15.8482V14.1115C7.98677 13.9452 8.12125 13.8108 8.28749 13.8108H15.3744C15.5407 13.8108 15.6751 13.9453 15.6751 14.1115V15.8482Z" fill="#231F20"/>
<path d="M6.07259 21.6046C6.07259 21.9181 5.81843 22.1722 5.50499 22.1722C5.19155 22.1722 4.9375 21.9181 4.9375 21.6046C4.9375 21.2912 5.19156 21.0371 5.50499 21.0371C5.81843 21.0371 6.07259 21.2912 6.07259 21.6046Z" fill="#231F20"/>
<path d="M8.58789 14.4121H15.0732V15.5472H8.58789V14.4121Z" fill="#231F20"/>
</svg>
