<svg width="32" height="32" viewBox="0 0 32 32" fill="none" xmlns="http://www.w3.org/2000/svg">
<path d="M13.5 13.7402C13.5 14.0164 13.7236 14.2402 14 14.2402H14.7931L14.2325 14.8011C14.0372 14.9964 14.0372 15.313 14.2325 15.508C14.4278 15.7034 14.7443 15.7034 14.9395 15.508L15.5 14.9474V15.7402C15.5 16.0164 15.7237 16.2402 16 16.2402C16.2764 16.2402 16.5 16.0164 16.5 15.7402V14.9474L17.0606 15.508C17.2559 15.7034 17.5723 15.7034 17.7675 15.508C17.9629 15.3129 17.9629 14.9963 17.7675 14.8011L17.2069 14.2402H18.0001C18.2764 14.2402 18.5001 14.0164 18.5001 13.7402C18.5001 13.4641 18.2764 13.2402 18.0001 13.2402H17.2069L17.7675 12.6794C17.9629 12.4841 17.9629 12.1674 17.7675 11.9724C17.5722 11.7771 17.2558 11.7771 17.0606 11.9724L16.5 12.533V11.7402C16.5 11.4641 16.2764 11.2402 16 11.2402C15.7237 11.2402 15.5 11.4641 15.5 11.7402V12.533L14.9395 11.9724C14.7442 11.7771 14.4277 11.7771 14.2325 11.9724C14.0372 12.1675 14.0372 12.4842 14.2325 12.6794L14.7931 13.2402H14C13.7237 13.2402 13.5 13.4641 13.5 13.7402Z" fill="#231F20"/>
<path d="M20.5 13.7402C20.5 14.0164 20.7236 14.2402 21 14.2402H21.7931L21.2325 14.8011C21.0372 14.9964 21.0372 15.313 21.2325 15.508C21.4278 15.7034 21.7443 15.7034 21.9395 15.508L22.5 14.9474V15.7402C22.5 16.0164 22.7237 16.2402 23 16.2402C23.2764 16.2402 23.5 16.0164 23.5 15.7402V14.9474L24.0606 15.508C24.2559 15.7034 24.5723 15.7034 24.7675 15.508C24.9629 15.3129 24.9629 14.9963 24.7675 14.8011L24.2069 14.2402H25.0001C25.2764 14.2402 25.5001 14.0164 25.5001 13.7402C25.5001 13.4641 25.2764 13.2402 25.0001 13.2402H24.2069L24.7675 12.6794C24.9629 12.4841 24.9629 12.1674 24.7675 11.9724C24.5722 11.7771 24.2558 11.7771 24.0606 11.9724L23.5 12.533V11.7402C23.5 11.4641 23.2764 11.2402 23 11.2402C22.7237 11.2402 22.5 11.4641 22.5 11.7402V12.533L21.9395 11.9724C21.7442 11.7771 21.4277 11.7771 21.2325 11.9724C21.0372 12.1675 21.0372 12.4842 21.2325 12.6794L21.7931 13.2402H21C20.7237 13.2402 20.5 13.4641 20.5 13.7402Z" fill="#231F20"/>
<path d="M7.2324 15.508C7.42771 15.7034 7.74416 15.7034 7.93939 15.508L8.49992 14.9474V15.7402C8.49992 16.0164 8.72357 16.2402 8.99992 16.2402C9.27627 16.2402 9.49992 16.0164 9.49992 15.7402V14.9474L10.0605 15.508C10.2558 15.7034 10.5722 15.7034 10.7674 15.508C10.9628 15.3129 10.9628 14.9963 10.7674 14.8011L10.2068 14.2402H10.9999C11.2763 14.2402 11.4999 14.0164 11.4999 13.7402C11.4999 13.4641 11.2763 13.2402 10.9999 13.2402H10.2068L10.7674 12.6794C10.9628 12.4841 10.9628 12.1674 10.7674 11.9724C10.5721 11.7771 10.2557 11.7771 10.0605 11.9724L9.49992 12.533V11.7402C9.49992 11.4641 9.27627 11.2402 8.99992 11.2402C8.72357 11.2402 8.49992 11.4641 8.49992 11.7402V12.533L7.93939 11.9724C7.74407 11.7771 7.42763 11.7771 7.2324 11.9724C7.03709 12.1675 7.03709 12.4842 7.2324 12.6794L7.79312 13.2402H7C6.72365 13.2402 6.5 13.4641 6.5 13.7402C6.5 14.0164 6.72365 14.2402 7 14.2402H7.79312L7.2324 14.8011C7.03709 14.9964 7.03709 15.313 7.2324 15.508Z" fill="#231F20"/>
<path d="M16.2182 18.5903L17.5926 20.0739L19.9265 17.9115L20 16.2402L18.3282 16.3134L16.2182 18.5903ZM14.424 20.5268L13.5356 21.4856L12.8519 20.8016L12.4284 21.2251L13.3795 22.1769L12.0005 23.5562L12.6831 24.2392L14.0624 22.8599L15.0145 23.8108L15.4378 23.3867L14.7541 22.7041L15.7633 21.7689L14.424 20.5268ZM19.5726 21.2258L19.1475 20.8026L18.4644 21.4869L13.6715 16.3132L12 16.241L12.0739 17.9123L17.246 22.7045L16.5623 23.3885L16.9852 23.8117L17.9373 22.8603L19.3163 24.2402L20 23.5559L18.621 22.1773L19.5726 21.2258Z" fill="#231F20"/>
<rect x="4" y="10.7402" width="24" height="6" rx="3" stroke="#231F20" stroke-width="6"/>
<path d="M12.2 19H6.5C3.46243 19 1 16.5376 1 13.5V13.5C1 10.4624 3.46243 8 6.5 8H25.5C28.5376 8 31 10.4624 31 13.5V13.5C31 16.5376 28.5376 19 25.5 19H19.5" stroke="#231F20"/>
</svg>
