<svg width="32" height="32" viewBox="0 0 32 32" fill="none" xmlns="http://www.w3.org/2000/svg">
<path d="M6.59 14.5H5.91C5.80687 14.7918 5.61595 15.0445 5.36355 15.2235C5.11115 15.4026 4.80949 15.4992 4.5 15.5H3.5V20C3.5 20.1326 3.55271 20.2598 3.64646 20.3535C3.74021 20.4473 3.8674 20.5 4.00001 20.5H28C28.1326 20.5 28.2598 20.4473 28.3536 20.3535C28.4473 20.2598 28.5 20.1326 28.5 20V15.5H27.5C27.1905 15.4992 26.8889 15.4026 26.6365 15.2235C26.3841 15.0445 26.1931 14.7918 26.09 14.5H25.41C25.3069 14.7918 25.116 15.0445 24.8636 15.2235C24.6112 15.4026 24.3095 15.4992 24 15.5H23C22.6905 15.4992 22.3889 15.4026 22.1365 15.2235C21.8841 15.0445 21.6931 14.7918 21.59 14.5H20.5V17.5C20.5 17.6326 20.4473 17.7598 20.3536 17.8535C20.2598 17.9473 20.1326 18 20 18H12C11.8674 18 11.7402 17.9473 11.6465 17.8535C11.5527 17.7598 11.5 17.6326 11.5 17.5V14.5H10.41C10.3069 14.7918 10.1159 15.0445 9.86355 15.2235C9.61115 15.4026 9.30949 15.4992 9 15.5H8C7.69053 15.4992 7.38885 15.4026 7.13645 15.2235C6.88406 15.0445 6.69312 14.7918 6.59 14.5Z" fill="#231F20"/>
<path d="M18.5 11V9.50001C18.5 8.60689 18.0235 7.78159 17.25 7.33492C16.4765 6.88836 15.5235 6.88836 14.75 7.33492C13.9765 7.78159 13.5 8.60689 13.5 9.50001V11H14.5V9.50001C14.5 8.96407 14.7859 8.46897 15.25 8.20095C15.7141 7.93303 16.2859 7.93303 16.75 8.20095C17.2141 8.46897 17.5 8.96407 17.5 9.50001V11H18.5Z" fill="#231F20"/>
<path d="M8.99997 14.5C9.17861 14.5 9.34362 14.4047 9.43298 14.25C9.52225 14.0953 9.52225 13.9047 9.43298 13.75C9.34361 13.5953 9.1786 13.5 8.99997 13.5H7.99997C7.82132 13.5 7.65631 13.5953 7.56695 13.75C7.47768 13.9047 7.47768 14.0953 7.56695 14.25C7.65633 14.4047 7.82133 14.5 7.99997 14.5H8.99997Z" fill="#231F20"/>
<path d="M29.498 15.11V20.0001C29.498 20.3979 29.34 20.7795 29.0587 21.0607C28.7774 21.3421 28.3959 21.5001 27.998 21.5001H3.99805C3.60023 21.5001 3.21866 21.3421 2.93743 21.0607C2.65607 20.7795 2.49805 20.3979 2.49805 20.0001V15.11C2.31294 14.9439 2.17199 14.7342 2.08805 14.5H1.49805V20C1.49805 20.663 1.76148 21.299 2.23023 21.7678C2.69909 22.2366 3.33503 22.5 3.99805 22.5H27.998C28.6611 22.5 29.297 22.2366 29.7659 21.7678C30.2346 21.299 30.498 20.663 30.498 20V14.5H29.908C29.8241 14.7342 29.6832 14.9439 29.498 15.11Z" fill="#231F20"/>
<path d="M15.5 9.49997V11H16.5V9.49997C16.5 9.32132 16.4047 9.15631 16.25 9.06695C16.0953 8.97768 15.9047 8.97768 15.75 9.06695C15.5953 9.15633 15.5 9.32133 15.5 9.49997Z" fill="#231F20"/>
<path d="M21.5 28.5015H10.5C10.3674 28.5015 10.2402 28.5542 10.1465 28.6479C10.0527 28.7417 10 28.8689 10 29.0015V30.5015H22V29.0015C22 28.8689 21.9473 28.7417 21.8535 28.6479C21.7598 28.5542 21.6326 28.5015 21.5 28.5015Z" fill="#231F20"/>
<path d="M12.5 23.5H19.5V27.5H12.5V23.5Z" fill="#231F20"/>
<path d="M24 14.5C24.1786 14.5 24.3436 14.4047 24.433 14.25C24.5223 14.0953 24.5223 13.9047 24.433 13.75C24.3436 13.5953 24.1786 13.5 24 13.5H23C22.8213 13.5 22.6563 13.5953 22.567 13.75C22.4777 13.9047 22.4777 14.0953 22.567 14.25C22.6563 14.4047 22.8213 14.5 23 14.5H24Z" fill="#231F20"/>
<path d="M3 14C3 14.1326 3.05271 14.2598 3.14646 14.3535C3.24021 14.4473 3.3674 14.5 3.50001 14.5H4.50001C4.67865 14.5 4.84366 14.4047 4.93302 14.25C5.02229 14.0953 5.02229 13.9047 4.93302 13.75C4.84364 13.5953 4.67864 13.5 4.50001 13.5H3.50001C3.3674 13.5 3.24021 13.5527 3.14646 13.6465C3.05271 13.7402 3 13.8674 3 14Z" fill="#231F20"/>
<path d="M28 1.5H4C3.33699 1.5 2.70104 1.76344 2.23219 2.23219C1.76344 2.70104 1.5 3.33699 1.5 4V13.5H2.09C2.17396 13.2658 2.3149 13.0561 2.5 12.89V3.99987C2.5 3.60205 2.65802 3.22048 2.93939 2.93925C3.22064 2.65789 3.60219 2.49987 4 2.49987H28C28.3978 2.49987 28.7794 2.65789 29.0606 2.93925C29.342 3.22051 29.5 3.60205 29.5 3.99987V12.89C29.6851 13.0561 29.8261 13.2658 29.91 13.5H30.5V4C30.5 3.33699 30.2366 2.70104 29.7678 2.23219C29.299 1.76344 28.663 1.5 28 1.5Z" fill="#231F20"/>
<path d="M28 3.5H4.00001C3.8674 3.5 3.74021 3.55271 3.64646 3.64646C3.55271 3.74021 3.5 3.8674 3.5 4.00001V12.5H4.5C4.80947 12.5008 5.11115 12.5974 5.36355 12.7765C5.61594 12.9555 5.80688 13.2082 5.91 13.5H6.59C6.69313 13.2082 6.88405 12.9555 7.13645 12.7765C7.38885 12.5974 7.69051 12.5008 8 12.5H9C9.30947 12.5008 9.61115 12.5974 9.86355 12.7765C10.1159 12.9555 10.3069 13.2082 10.41 13.5H11.5V11.5C11.5 11.3674 11.5527 11.2402 11.6465 11.1465C11.7402 11.0527 11.8674 11 12 11H12.5V9.5C12.5 8.24957 13.1671 7.09416 14.25 6.46907C15.3329 5.84376 16.6671 5.84376 17.75 6.46907C18.8329 7.09427 19.5 8.24968 19.5 9.5V11H20C20.1326 11 20.2598 11.0527 20.3536 11.1465C20.4473 11.2402 20.5 11.3674 20.5 11.5V13.5H21.59C21.6931 13.2082 21.8841 12.9555 22.1365 12.7765C22.3889 12.5974 22.6905 12.5008 23 12.5H24C24.3095 12.5008 24.6112 12.5974 24.8636 12.7765C25.116 12.9555 25.3069 13.2082 25.41 13.5H26.09C26.1931 13.2082 26.3841 12.9555 26.6365 12.7765C26.8889 12.5974 27.1905 12.5008 27.5 12.5H28.5V4.00001C28.5 3.8674 28.4473 3.74021 28.3536 3.64646C28.2598 3.55271 28.1326 3.5 28 3.5Z" fill="#231F20"/>
<path d="M29 14C29 13.8674 28.9473 13.7402 28.8535 13.6465C28.7598 13.5527 28.6326 13.5 28.5 13.5H27.5C27.3213 13.5 27.1563 13.5953 27.067 13.75C26.9777 13.9047 26.9777 14.0953 27.067 14.25C27.1563 14.4047 27.3213 14.5 27.5 14.5H28.5C28.6326 14.5 28.7598 14.4473 28.8535 14.3535C28.9473 14.2598 29 14.1326 29 14Z" fill="#231F20"/>
<path d="M12.5 17H19.5V12H12.5V17ZM16 13C16.3978 13 16.7794 13.158 17.0606 13.4394C17.342 13.7206 17.5 14.1022 17.5 14.5C17.5 14.8978 17.342 15.2794 17.0606 15.5606C16.7794 15.842 16.3978 16 16 16C15.6022 16 15.2206 15.842 14.9394 15.5606C14.658 15.2794 14.5 14.8978 14.5 14.5C14.5 14.1022 14.658 13.7206 14.9394 13.4394C15.2206 13.158 15.6022 13 16 13Z" fill="#231F20"/>
<path d="M16.5 14.5C16.5 14.7761 16.2761 15 16 15C15.7239 15 15.5 14.7761 15.5 14.5C15.5 14.2239 15.7239 14 16 14C16.2761 14 16.5 14.2239 16.5 14.5Z" fill="#231F20"/>
</svg>
