<svg width="32" height="32" viewBox="0 0 32 32" fill="none" xmlns="http://www.w3.org/2000/svg">
<path d="M28 1.50005H4C2.62 1.50005 1.5 2.62005 1.5 4.00005V24.0001C1.5 25.3801 2.62 26.5001 4 26.5001H8.52507C8.65507 28.615 9.04005 30.0401 9.06507 30.135C9.12507 30.35 9.32007 30.5 9.54507 30.5H21.2851C21.5601 30.5 21.7851 30.275 21.7851 30C21.7851 28.675 21.4351 27.485 20.8051 26.5H27.9949C29.3749 26.5 30.4949 25.38 30.4949 24V4C30.4949 2.62 29.3749 1.5 27.9949 1.5L28 1.50005ZM2.5 4.00005C2.5 3.17504 3.17499 2.50005 4 2.50005H28C28.825 2.50005 29.5 3.17504 29.5 4.00005V4.50005H2.5V4.00005ZM9.65493 22.475C9.73493 21.865 10.5699 16.775 15.7648 15.6601C15.6848 15.9051 15.6298 16.1601 15.6048 16.4301C13.9998 16.9151 11.6048 18.2901 10.9947 22.1751C10.4497 25.645 10.9697 28.3151 11.2897 29.5053H9.93965C9.72465 28.5303 9.21965 25.7303 9.64965 22.4802L9.65493 22.475ZM12.3349 29.5001C12.0699 28.6001 11.4249 25.895 11.9849 22.3299C12.5249 18.8899 14.5799 17.7001 16.21 17.3049C16.44 17.2499 16.595 17.0449 16.59 16.8099C16.57 15.9649 16.9 15.3249 17.565 14.8999C17.62 15.6599 17.84 16.2449 18 16.6799L18.035 16.7799C18.1 16.9499 18.24 17.0749 18.425 17.0999C18.465 17.1199 18.535 17.1549 18.635 17.1799C19.2 17.3199 19.335 17.6799 19.545 18.3599C19.745 19.0099 19.995 19.8199 20.93 20.2649C21.47 20.5199 21.8 20.8349 21.91 21.2049C22.05 21.6849 21.805 22.2099 21.58 22.5649C21.185 23.1849 21.17 23.1799 20.19 23.0749C20 23.0549 19.78 23.0299 19.535 23.0099C17.95 22.8749 17.65 22.1849 17.64 22.1699C17.565 21.9349 17.325 21.7949 17.09 21.8299C16.85 21.8699 16.67 22.0749 16.665 22.3199C16.665 22.4099 16.665 24.5799 18.25 25.4449C20.165 26.49 20.66 28.2799 20.755 29.5049H12.335L12.3349 29.5001ZM28 25.5001H20.0101C19.6401 25.135 19.2151 24.8201 18.7401 24.5601C18.3601 24.3501 18.1151 24.0051 17.9551 23.6451C18.3351 23.8101 18.8251 23.9451 19.4551 23.9951C19.6951 24.0151 19.9051 24.0401 20.0851 24.0601C21.2051 24.1801 21.7301 24.1901 22.4251 23.0951C22.9101 22.3351 23.0651 21.5801 22.8701 20.9201C22.6801 20.2601 22.1701 19.7351 21.3601 19.3501C20.8501 19.1101 20.7001 18.7051 20.5051 18.0601C20.2901 17.3601 20.0201 16.4901 18.8951 16.2051C18.7551 15.8301 18.6051 15.3801 18.5602 14.8251C18.5352 14.4701 18.3302 14.1651 18.0151 14.0051C17.6951 13.8451 17.3251 13.8651 17.0301 14.0551C16.8101 14.1951 16.6151 14.3551 16.4401 14.5351C9.7852 15.3601 8.75507 21.6201 8.66013 22.3401C8.51013 23.4701 8.47013 24.5351 8.48513 25.5001H4.00007C3.17505 25.5001 2.50007 24.8252 2.50007 24.0001V5.50015H29.5001V24.0001C29.5001 24.8252 28.8251 25.5001 28.0001 25.5001L28 25.5001Z" fill="#231F20"/>
<path d="M24 9.5H8C7.72501 9.5 7.5 9.725 7.5 10C7.5 10.275 7.725 10.5 8 10.5H24C24.275 10.5 24.5 10.275 24.5 10C24.5 9.725 24.275 9.5 24 9.5Z" fill="#231F20"/>
<path d="M24 11.5H8C7.72501 11.5 7.5 11.725 7.5 12C7.5 12.275 7.725 12.5 8 12.5H24C24.275 12.5 24.5 12.275 24.5 12C24.5 11.725 24.275 11.5 24 11.5Z" fill="#231F20"/>
<path d="M26 7.5H6C5.72501 7.5 5.5 7.725 5.5 8C5.5 8.275 5.725 8.5 6 8.5H26C26.275 8.5 26.5 8.275 26.5 8C26.5 7.725 26.275 7.5 26 7.5Z" fill="#231F20"/>
</svg>
