<svg width="64" height="64" viewBox="0 0 64 64" fill="none" xmlns="http://www.w3.org/2000/svg">
<g clip-path="url(#clip0_176_2544)">
<path d="M48.7999 15.2266C47.7599 14.1866 46.0799 14.1866 45.0399 15.2266L31.9999 28.2399L18.9599 15.1999C17.9199 14.1599 16.2399 14.1599 15.1999 15.1999C14.1599 16.2399 14.1599 17.9199 15.1999 18.9599L28.2399 31.9999L15.1999 45.0399C14.1599 46.0799 14.1599 47.7599 15.1999 48.7999C16.2399 49.8399 17.9199 49.8399 18.9599 48.7999L31.9999 35.7599L45.0399 48.7999C46.0799 49.8399 47.7599 49.8399 48.7999 48.7999C49.8399 47.7599 49.8399 46.0799 48.7999 45.0399L35.7599 31.9999L48.7999 18.9599C49.8133 17.9466 49.8133 16.2399 48.7999 15.2266Z" fill="#E8F1F2"/>
</g>
<defs>
<clipPath id="clip0_176_2544">
<rect width="64" height="64" fill="white"/>
</clipPath>
</defs>
</svg>
