<svg width="64" height="64" viewBox="0 0 64 64" fill="none" xmlns="http://www.w3.org/2000/svg">
<g clip-path="url(#clip0_144_296)">
<path d="M32.0007 5.3335C21.6807 5.3335 13.334 13.6802 13.334 24.0002C13.334 35.1202 25.1206 50.4535 29.974 56.2935C31.0406 57.5735 32.9873 57.5735 34.054 56.2935C38.8807 50.4535 50.6673 35.1202 50.6673 24.0002C50.6673 13.6802 42.3206 5.3335 32.0007 5.3335ZM32.0007 30.6668C28.3207 30.6668 25.334 27.6802 25.334 24.0002C25.334 20.3202 28.3207 17.3335 32.0007 17.3335C35.6806 17.3335 38.6673 20.3202 38.6673 24.0002C38.6673 27.6802 35.6806 30.6668 32.0007 30.6668Z" fill="#C40179"/>
</g>
<defs>
<clipPath id="clip0_144_296">
<rect width="64" height="64" fill="white"/>
</clipPath>
</defs>
</svg>
