<svg width="64" height="64" viewBox="0 0 64 64" fill="none" xmlns="http://www.w3.org/2000/svg">
<g clip-path="url(#clip0_222_2080)">
<path d="M48.0006 42.6665V29.3332C48.0006 21.1465 43.6273 14.2932 36.0006 12.4798V10.6665C36.0006 8.45317 34.1873 6.6665 31.9739 6.6665C29.7606 6.6665 28.0006 8.45317 28.0006 10.6665V12.4798C20.3473 14.2932 16.0006 21.1198 16.0006 29.3332V42.6665L12.5339 46.1065C10.8539 47.7865 12.0273 50.6665 14.4006 50.6665H49.5206C51.8939 50.6665 53.0939 47.7865 51.4139 46.1065L48.0006 42.6665ZM31.9739 58.6665C34.9073 58.6665 37.3073 56.2665 37.3073 53.3332H26.6406C26.6406 56.2665 29.0139 58.6665 31.9739 58.6665ZM18.0539 12.6132C19.1739 11.5998 19.2006 9.8665 18.1339 8.79984C17.1206 7.7865 15.4673 7.75984 14.4273 8.7465C9.86726 12.9065 6.72059 18.5598 5.70726 24.9065C5.46726 26.5332 6.72059 27.9998 8.37392 27.9998C9.65392 27.9998 10.7739 27.0665 10.9873 25.7865C11.7873 20.6132 14.3473 15.9998 18.0539 12.6132ZM49.6006 8.7465C48.5339 7.75984 46.8806 7.7865 45.8673 8.79984C44.8006 9.8665 44.8539 11.5732 45.9473 12.5865C49.6273 15.9732 52.2139 20.5865 53.0139 25.7598C53.2006 27.0398 54.3206 27.9732 55.6273 27.9732C57.2539 27.9732 58.5339 26.5065 58.2673 24.8798C57.2539 18.5598 54.1339 12.9332 49.6006 8.7465Z" fill="#C40179"/>
</g>
<defs>
<clipPath id="clip0_222_2080">
<rect width="64" height="64" fill="white"/>
</clipPath>
</defs>
</svg>
