<svg width="64" height="64" viewBox="0 0 64 64" fill="none" xmlns="http://www.w3.org/2000/svg">
<g clip-path="url(#clip0_140_71)">
<path d="M32.0001 58.6665C34.9335 58.6665 37.3335 56.2665 37.3335 53.3332H26.6668C26.6668 56.2665 29.0401 58.6665 32.0001 58.6665ZM48.0001 42.6665V29.3332C48.0001 21.1465 43.6268 14.2932 36.0001 12.4798V10.6665C36.0001 8.45317 34.2135 6.6665 32.0001 6.6665C29.7868 6.6665 28.0001 8.45317 28.0001 10.6665V12.4798C20.3468 14.2932 16.0001 21.1198 16.0001 29.3332V42.6665L12.5601 46.1065C10.8801 47.7865 12.0535 50.6665 14.4268 50.6665H49.5468C51.9201 50.6665 53.1201 47.7865 51.4401 46.1065L48.0001 42.6665Z" fill="#E8F1F2"/>
</g>
<defs>
<clipPath id="clip0_140_71">
<rect width="64" height="64" fill="white"/>
</clipPath>
</defs>
</svg>
