<svg width="64" height="64" viewBox="0 0 64 64" fill="none" xmlns="http://www.w3.org/2000/svg">
<g clip-path="url(#clip0_140_65)">
<path d="M51.7582 34.6135C51.8649 33.7602 51.9449 32.9068 51.9449 32.0002C51.9449 31.0935 51.8649 30.2402 51.7582 29.3868L57.3849 24.9868C57.8916 24.5868 58.0249 23.8668 57.7049 23.2802L52.3716 14.0535C52.0516 13.4668 51.3316 13.2535 50.7449 13.4668L44.1049 16.1335C42.7182 15.0668 41.2249 14.1868 39.5982 13.5202L38.5849 6.4535C38.5049 5.8135 37.9449 5.3335 37.2782 5.3335H26.6116C25.9449 5.3335 25.3849 5.8135 25.3049 6.4535L24.2916 13.5202C22.6649 14.1868 21.1716 15.0935 19.7849 16.1335L13.1449 13.4668C12.5316 13.2268 11.8382 13.4668 11.5182 14.0535L6.18488 23.2802C5.83822 23.8668 5.99822 24.5868 6.50488 24.9868L12.1316 29.3868C12.0249 30.2402 11.9449 31.1202 11.9449 32.0002C11.9449 32.8802 12.0249 33.7602 12.1316 34.6135L6.50488 39.0135C5.99822 39.4135 5.86488 40.1335 6.18488 40.7202L11.5182 49.9468C11.8382 50.5335 12.5582 50.7468 13.1449 50.5335L19.7849 47.8668C21.1716 48.9335 22.6649 49.8135 24.2916 50.4802L25.3049 57.5468C25.3849 58.1868 25.9449 58.6668 26.6116 58.6668H37.2782C37.9449 58.6668 38.5049 58.1868 38.5849 57.5468L39.5982 50.4802C41.2249 49.8135 42.7182 48.9068 44.1049 47.8668L50.7449 50.5335C51.3582 50.7735 52.0516 50.5335 52.3716 49.9468L57.7049 40.7202C58.0249 40.1335 57.8916 39.4135 57.3849 39.0135L51.7582 34.6135ZM31.9449 41.3335C26.7982 41.3335 22.6116 37.1468 22.6116 32.0002C22.6116 26.8535 26.7982 22.6668 31.9449 22.6668C37.0916 22.6668 41.2782 26.8535 41.2782 32.0002C41.2782 37.1468 37.0916 41.3335 31.9449 41.3335Z" fill="#E8F1F2"/>
</g>
<defs>
<clipPath id="clip0_140_65">
<rect width="64" height="64" fill="white"/>
</clipPath>
</defs>
</svg>
