<svg width="32" height="32" viewBox="0 0 32 32" fill="none" xmlns="http://www.w3.org/2000/svg">
<path d="M3.33398 20.6665H15.334V25.9998H3.33398V20.6665Z" fill="#E8F1F2"/>
<path d="M29.1465 29.3332H29.9998C30.5297 29.3316 31.0375 29.1204 31.4123 28.7457C31.787 28.3709 31.9983 27.8631 31.9998 27.3332V24.6665C31.9998 26.4732 30.6598 28.0865 29.1465 29.3332Z" fill="#E8F1F2"/>
<path d="M30 2.66667e-06H2C1.47011 0.00156517 0.962293 0.212816 0.587493 0.587496C0.2128 0.962296 0.00154667 1.47011 0 2V27.3333C0.00156251 27.8632 0.212813 28.371 0.587493 28.7458C0.962293 29.1205 1.47011 29.3318 2 29.3333H20.18C19.6745 28.9316 19.2059 28.4853 18.78 28H2C1.82323 28 1.65365 27.9298 1.52864 27.8047C1.40354 27.6797 1.33333 27.5101 1.33333 27.3333V6.66666H30.6667V17.0133L31.58 17.38C31.7041 17.4294 31.8104 17.5149 31.8853 17.6254C31.9602 17.736 32.0001 17.8665 32 18V2C31.9984 1.47011 31.7872 0.962293 31.4125 0.587493C31.0377 0.2128 30.5299 0.00154933 30 2.66667e-06ZM3.33333 4C3.15656 4 2.98699 3.92979 2.86197 3.80469C2.73687 3.67969 2.66666 3.5101 2.66666 3.33333C2.66666 3.15656 2.73687 2.98698 2.86197 2.86197C2.98697 2.73687 3.15656 2.66666 3.33333 2.66666C3.51011 2.66666 3.67968 2.73687 3.80469 2.86197C3.9298 2.98697 4.00001 3.15656 4.00001 3.33333C4.00001 3.5101 3.9298 3.67968 3.80469 3.80469C3.67969 3.92979 3.51011 4 3.33333 4ZM5.33333 4C5.15656 4 4.98699 3.92979 4.86197 3.80469C4.73687 3.67969 4.66666 3.5101 4.66666 3.33333C4.66666 3.15656 4.73687 2.98698 4.86197 2.86197C4.98697 2.73687 5.15656 2.66666 5.33333 2.66666C5.51011 2.66666 5.67968 2.73687 5.80469 2.86197C5.9298 2.98697 6.00001 3.15656 6.00001 3.33333C6.00001 3.5101 5.9298 3.67968 5.80469 3.80469C5.67969 3.92979 5.51011 4 5.33333 4ZM7.33333 4C7.15656 4 6.98699 3.92979 6.86197 3.80469C6.73687 3.67969 6.66666 3.5101 6.66666 3.33333C6.66666 3.15656 6.73687 2.98698 6.86197 2.86197C6.98697 2.73687 7.15656 2.66666 7.33333 2.66666C7.51011 2.66666 7.67968 2.73687 7.80469 2.86197C7.9298 2.98697 8.00001 3.15656 8.00001 3.33333C8.00001 3.5101 7.9298 3.67968 7.80469 3.80469C7.67969 3.92979 7.51011 4 7.33333 4Z" fill="#E8F1F2"/>
<path d="M24.914 14.7132L28.6673 16.2132V8.6665H3.33398V17.9998H17.334C17.3339 17.8663 17.3738 17.7359 17.4487 17.6253C17.5236 17.5147 17.6299 17.4292 17.754 17.3798L24.4206 14.7132C24.5796 14.6532 24.755 14.6532 24.914 14.7132Z" fill="#E8F1F2"/>
<path d="M30.666 18.4532L24.666 16.0532L18.666 18.4532V24.6666C18.666 25.8866 19.606 27.0599 20.666 27.9999C21.0127 28.3066 21.3793 28.5866 21.726 28.8399C21.966 29.0199 22.2127 29.1866 22.446 29.3332C23.1592 29.8007 23.9007 30.2238 24.666 30.5999C25.4387 30.2295 26.1849 29.8062 26.8993 29.3332C27.5159 28.9297 28.1039 28.4842 28.6593 27.9999C29.786 26.9999 30.666 25.8399 30.666 24.6666V18.4532ZM28.4727 21.1399L23.1393 26.4732C23.013 26.5972 22.843 26.6666 22.666 26.6666C22.489 26.6666 22.319 26.5972 22.1927 26.4732L20.8593 25.1399C20.6903 24.9708 20.6242 24.7243 20.6861 24.4933C20.748 24.2623 20.9284 24.0819 21.1595 24.02C21.3904 23.9581 21.6369 24.0242 21.806 24.1932L22.666 25.0599L27.526 20.1932C27.6951 20.0242 27.9416 19.9581 28.1726 20.02C28.4036 20.0819 28.584 20.2623 28.6459 20.4933C28.7078 20.7243 28.6417 20.9708 28.4727 21.1399Z" fill="#E8F1F2"/>
</svg>
